<svg width="1061" height="1079" viewBox="0 0 1061 1079" fill="none" xmlns="http://www.w3.org/2000/svg">
<path d="M68.4026 500.421C68.4026 500.421 42.8028 459.35 37.9112 429.05C34.1033 405.463 39.4188 367.188 39.4188 367.188C39.4188 367.188 80.6403 430.368 122.499 429.804C156.039 429.353 175.752 412.506 200.069 387.837C224.387 363.168 240.92 309.672 240.92 309.672C240.92 309.672 219.129 434.014 227.938 511.708C233.631 561.918 239.277 590.333 257.119 636.872C276.235 686.734 287.969 717.88 321.138 759.087C359.592 806.861 388.216 833.568 443.399 861.022C503.262 890.804 550.967 898.74 619.409 899.703C696.273 900.783 746.613 893.789 818.717 861.99C880.424 834.776 907.126 807.213 953.933 757.815C988.239 721.61 1024.96 650.126 1024.96 650.126C1024.96 650.126 1007.03 608.683 990.275 585.635C973.328 562.323 939.194 532.528 939.194 532.528M135.286 566.352C135.286 566.352 188.142 599.276 226.956 607.139C268.063 615.466 291.412 609.319 333.247 598.991C391.343 584.649 425.012 569.596 482.225 547.54C529.321 529.384 554.614 515.194 602.877 501.217C660.815 484.438 694.693 473.41 753.954 473.868C797.102 474.202 862.344 489.823 862.344 489.823M917.276 516.691L883.872 498.812M108.992 543.186L90.6316 525.088" stroke="#D7D8DA" stroke-width="0.6" stroke-linecap="round" stroke-linejoin="round"/>
</svg>
