<svg width="298" height="315" viewBox="0 0 298 315" fill="none" xmlns="http://www.w3.org/2000/svg">
<path d="M22.3374 187C22.16 187 22.034 186.93 21.9594 186.79C21.894 186.65 21.894 186.519 21.9594 186.398L26.2014 176.36C26.276 176.164 26.4114 176.066 26.6074 176.066C26.794 176.066 26.9294 176.164 27.0134 176.36L31.2694 186.398C31.344 186.529 31.3394 186.664 31.2554 186.804C31.1714 186.935 31.05 187 30.8914 187C30.798 187 30.7187 186.981 30.6534 186.944C30.5974 186.897 30.546 186.827 30.4994 186.734L26.3834 176.92H26.8314L22.7294 186.734C22.692 186.827 22.6407 186.897 22.5754 186.944C22.51 186.981 22.4307 187 22.3374 187ZM36.1571 187.098C35.4851 187.098 34.8831 186.963 34.3511 186.692C33.8191 186.412 33.3945 186.006 33.0771 185.474C32.7691 184.942 32.6151 184.293 32.6151 183.528V179.762C32.6151 179.641 32.6525 179.543 32.7271 179.468C32.8111 179.384 32.9138 179.342 33.0351 179.342C33.1565 179.342 33.2545 179.384 33.3291 179.468C33.4131 179.543 33.4551 179.641 33.4551 179.762V183.528C33.4551 184.135 33.5718 184.643 33.8051 185.054C34.0478 185.455 34.3698 185.759 34.7711 185.964C35.1818 186.16 35.6438 186.258 36.1571 186.258C36.6611 186.258 37.1138 186.16 37.5151 185.964C37.9165 185.768 38.2338 185.507 38.4671 185.18C38.7005 184.844 38.8171 184.466 38.8171 184.046H39.5171C39.4798 184.625 39.3071 185.147 38.9991 185.614C38.6911 186.071 38.2898 186.435 37.7951 186.706C37.3098 186.967 36.7638 187.098 36.1571 187.098ZM39.2371 187C39.1158 187 39.0131 186.963 38.9291 186.888C38.8545 186.804 38.8171 186.701 38.8171 186.58V179.762C38.8171 179.631 38.8545 179.529 38.9291 179.454C39.0131 179.379 39.1158 179.342 39.2371 179.342C39.3678 179.342 39.4705 179.379 39.5451 179.454C39.6198 179.529 39.6571 179.631 39.6571 179.762V186.58C39.6571 186.701 39.6198 186.804 39.5451 186.888C39.4705 186.963 39.3678 187 39.2371 187ZM44.807 184.578C44.1257 184.578 43.5424 184.447 43.057 184.186C42.5717 183.925 42.1984 183.547 41.937 183.052C41.6757 182.557 41.545 181.969 41.545 181.288V179.762C41.545 179.631 41.5824 179.529 41.657 179.454C41.741 179.379 41.8437 179.342 41.965 179.342C42.0957 179.342 42.1984 179.379 42.273 179.454C42.3477 179.529 42.385 179.631 42.385 179.762V181.288C42.385 182.063 42.595 182.665 43.015 183.094C43.435 183.523 44.0324 183.738 44.807 183.738C45.423 183.738 45.927 183.626 46.319 183.402C46.711 183.169 46.907 182.87 46.907 182.506H47.327C47.299 182.907 47.173 183.267 46.949 183.584C46.725 183.892 46.4264 184.135 46.053 184.312C45.689 184.489 45.2737 184.578 44.807 184.578ZM47.327 187C47.2057 187 47.103 186.963 47.019 186.888C46.9444 186.804 46.907 186.701 46.907 186.58V179.762C46.907 179.631 46.9444 179.529 47.019 179.454C47.103 179.379 47.2057 179.342 47.327 179.342C47.4577 179.342 47.5604 179.379 47.635 179.454C47.7097 179.529 47.747 179.631 47.747 179.762V186.58C47.747 186.701 47.7097 186.804 47.635 186.888C47.5604 186.963 47.4577 187 47.327 187ZM56.8908 187C56.7695 187 56.6668 186.963 56.5828 186.888C56.5081 186.804 56.4708 186.701 56.4708 186.58V179.762C56.4708 179.631 56.5081 179.529 56.5828 179.454C56.6668 179.379 56.7695 179.342 56.8908 179.342C57.0215 179.342 57.1241 179.379 57.1988 179.454C57.2735 179.529 57.3108 179.631 57.3108 179.762V186.58C57.3108 186.701 57.2735 186.804 57.1988 186.888C57.1241 186.963 57.0215 187 56.8908 187ZM50.6888 187C50.5675 187 50.4648 186.963 50.3808 186.888C50.3061 186.804 50.2688 186.701 50.2688 186.58V179.762C50.2688 179.631 50.3061 179.529 50.3808 179.454C50.4648 179.379 50.5675 179.342 50.6888 179.342C50.8195 179.342 50.9221 179.379 50.9968 179.454C51.0715 179.529 51.1088 179.631 51.1088 179.762V186.58C51.1088 186.701 51.0715 186.804 50.9968 186.888C50.9221 186.963 50.8195 187 50.6888 187ZM50.9268 183.598V182.842H56.8208V183.598H50.9268ZM62.8354 187.14C62.2474 187.14 61.7248 187.028 61.2674 186.804C60.8194 186.571 60.4648 186.253 60.2034 185.852C59.9514 185.441 59.8254 184.975 59.8254 184.452V179.748C59.8348 179.627 59.8768 179.529 59.9514 179.454C60.0261 179.379 60.1241 179.342 60.2454 179.342C60.3761 179.342 60.4788 179.379 60.5534 179.454C60.6281 179.529 60.6654 179.631 60.6654 179.762V182.044H62.8354C63.3768 182.044 63.8574 182.151 64.2774 182.366C64.6974 182.581 65.0241 182.879 65.2574 183.262C65.5001 183.645 65.6214 184.088 65.6214 184.592C65.6214 185.087 65.5001 185.53 65.2574 185.922C65.0241 186.305 64.6974 186.603 64.2774 186.818C63.8574 187.033 63.3768 187.14 62.8354 187.14ZM62.8354 186.384C63.4048 186.384 63.8714 186.235 64.2354 185.936C64.5994 185.637 64.7814 185.189 64.7814 184.592C64.7814 183.995 64.5994 183.547 64.2354 183.248C63.8714 182.949 63.4048 182.8 62.8354 182.8H60.6654V184.466C60.6654 185.026 60.8708 185.488 61.2814 185.852C61.6921 186.207 62.2101 186.384 62.8354 186.384ZM67.2454 187C67.1241 187 67.0214 186.963 66.9374 186.888C66.8628 186.804 66.8254 186.701 66.8254 186.58V179.762C66.8254 179.631 66.8628 179.529 66.9374 179.454C67.0214 179.379 67.1241 179.342 67.2454 179.342C67.3761 179.342 67.4788 179.379 67.5534 179.454C67.6281 179.529 67.6654 179.631 67.6654 179.762V186.58C67.6654 186.701 67.6281 186.804 67.5534 186.888C67.4788 186.963 67.3761 187 67.2454 187ZM73.5907 187.098C72.9187 187.098 72.3167 186.963 71.7847 186.692C71.2527 186.412 70.828 186.006 70.5107 185.474C70.2027 184.942 70.0487 184.293 70.0487 183.528V179.762C70.0487 179.641 70.086 179.543 70.1607 179.468C70.2447 179.384 70.3474 179.342 70.4687 179.342C70.59 179.342 70.688 179.384 70.7627 179.468C70.8467 179.543 70.8887 179.641 70.8887 179.762V183.528C70.8887 184.135 71.0054 184.643 71.2387 185.054C71.4814 185.455 71.8034 185.759 72.2047 185.964C72.6154 186.16 73.0774 186.258 73.5907 186.258C74.0947 186.258 74.5474 186.16 74.9487 185.964C75.35 185.768 75.6674 185.507 75.9007 185.18C76.134 184.844 76.2507 184.466 76.2507 184.046H76.9507C76.9134 184.625 76.7407 185.147 76.4327 185.614C76.1247 186.071 75.7234 186.435 75.2287 186.706C74.7434 186.967 74.1974 187.098 73.5907 187.098ZM76.6707 187C76.5494 187 76.4467 186.963 76.3627 186.888C76.288 186.804 76.2507 186.701 76.2507 186.58V179.762C76.2507 179.631 76.288 179.529 76.3627 179.454C76.4467 179.379 76.5494 179.342 76.6707 179.342C76.8014 179.342 76.904 179.379 76.9787 179.454C77.0534 179.529 77.0907 179.631 77.0907 179.762V186.58C77.0907 186.701 77.0534 186.804 76.9787 186.888C76.904 186.963 76.8014 187 76.6707 187ZM73.6467 178.362C73.208 178.362 72.8114 178.287 72.4567 178.138C72.102 177.989 71.822 177.788 71.6167 177.536C71.4207 177.275 71.3227 176.981 71.3227 176.654C71.3227 176.523 71.36 176.421 71.4347 176.346C71.5187 176.262 71.6214 176.22 71.7427 176.22C71.864 176.22 71.962 176.267 72.0367 176.36C72.1207 176.444 72.1627 176.565 72.1627 176.724C72.1627 176.995 72.3027 177.209 72.5827 177.368C72.872 177.527 73.2267 177.606 73.6467 177.606C74.0667 177.606 74.4167 177.527 74.6967 177.368C74.986 177.209 75.1307 176.995 75.1307 176.724C75.1307 176.565 75.168 176.444 75.2427 176.36C75.3267 176.267 75.4294 176.22 75.5507 176.22C75.672 176.22 75.77 176.262 75.8447 176.346C75.9287 176.421 75.9707 176.523 75.9707 176.654C75.9707 176.981 75.868 177.275 75.6627 177.536C75.4667 177.788 75.1914 177.989 74.8367 178.138C74.4914 178.287 74.0947 178.362 73.6467 178.362ZM14.1575 203C14.0269 203 13.9242 202.963 13.8495 202.888C13.7749 202.813 13.7375 202.711 13.7375 202.58V195.762C13.7375 195.622 13.7749 195.519 13.8495 195.454C13.9242 195.379 14.0269 195.342 14.1575 195.342C14.3629 195.342 14.5262 195.435 14.6475 195.622L17.8675 200.298L21.0875 195.622C21.2089 195.435 21.3722 195.342 21.5775 195.342C21.7082 195.342 21.8109 195.379 21.8855 195.454C21.9602 195.519 21.9975 195.622 21.9975 195.762V202.58C21.9975 202.711 21.9602 202.813 21.8855 202.888C21.8109 202.963 21.7082 203 21.5775 203C21.4375 203 21.3302 202.963 21.2555 202.888C21.1902 202.813 21.1575 202.711 21.1575 202.58V196.182L21.5075 196.294L18.2175 201.096C18.1242 201.217 18.0075 201.278 17.8675 201.278C17.7275 201.278 17.6109 201.217 17.5175 201.096L14.2135 196.35L14.5775 196.238V202.58C14.5775 202.72 14.5402 202.827 14.4655 202.902C14.4002 202.967 14.2975 203 14.1575 203ZM27.899 203.07C27.1616 203.07 26.5036 202.907 25.925 202.58C25.3556 202.244 24.9076 201.782 24.581 201.194C24.2543 200.606 24.091 199.934 24.091 199.178C24.091 198.413 24.245 197.741 24.553 197.162C24.861 196.574 25.2856 196.112 25.827 195.776C26.3683 195.44 26.989 195.272 27.689 195.272C28.3796 195.272 28.991 195.435 29.523 195.762C30.055 196.079 30.4703 196.523 30.769 197.092C31.0676 197.652 31.217 198.301 31.217 199.038C31.217 199.159 31.1796 199.257 31.105 199.332C31.0303 199.397 30.9323 199.43 30.811 199.43H24.651V198.702H31.035L30.419 199.164C30.4376 198.557 30.335 198.021 30.111 197.554C29.887 197.087 29.565 196.723 29.145 196.462C28.7343 196.191 28.249 196.056 27.689 196.056C27.157 196.056 26.681 196.191 26.261 196.462C25.8503 196.723 25.5236 197.087 25.281 197.554C25.0476 198.021 24.931 198.562 24.931 199.178C24.931 199.785 25.057 200.321 25.309 200.788C25.561 201.255 25.911 201.623 26.359 201.894C26.807 202.155 27.3203 202.286 27.899 202.286C28.263 202.286 28.627 202.225 28.991 202.104C29.3643 201.973 29.6583 201.805 29.873 201.6C29.9476 201.525 30.0363 201.488 30.139 201.488C30.251 201.479 30.3443 201.507 30.419 201.572C30.5216 201.656 30.573 201.749 30.573 201.852C30.5823 201.955 30.5403 202.048 30.447 202.132C30.1483 202.403 29.7563 202.627 29.271 202.804C28.795 202.981 28.3376 203.07 27.899 203.07ZM39.6642 203C39.5429 203 39.4402 202.963 39.3562 202.888C39.2816 202.804 39.2442 202.701 39.2442 202.58V195.762C39.2442 195.631 39.2816 195.529 39.3562 195.454C39.4402 195.379 39.5429 195.342 39.6642 195.342C39.7949 195.342 39.8976 195.379 39.9722 195.454C40.0469 195.529 40.0842 195.631 40.0842 195.762V202.58C40.0842 202.701 40.0469 202.804 39.9722 202.888C39.8976 202.963 39.7949 203 39.6642 203ZM33.4622 203C33.3409 203 33.2382 202.963 33.1542 202.888C33.0796 202.804 33.0422 202.701 33.0422 202.58V195.762C33.0422 195.631 33.0796 195.529 33.1542 195.454C33.2382 195.379 33.3409 195.342 33.4622 195.342C33.5929 195.342 33.6956 195.379 33.7702 195.454C33.8449 195.529 33.8822 195.631 33.8822 195.762V202.58C33.8822 202.701 33.8449 202.804 33.7702 202.888C33.6956 202.963 33.5929 203 33.4622 203ZM33.7002 199.598V198.842H39.5942V199.598H33.7002ZM45.9869 203.07C45.2495 203.07 44.5915 202.907 44.0129 202.58C43.4435 202.244 42.9955 201.782 42.6689 201.194C42.3422 200.606 42.1789 199.934 42.1789 199.178C42.1789 198.413 42.3329 197.741 42.6409 197.162C42.9489 196.574 43.3735 196.112 43.9149 195.776C44.4562 195.44 45.0769 195.272 45.7769 195.272C46.4675 195.272 47.0789 195.435 47.6109 195.762C48.1429 196.079 48.5582 196.523 48.8569 197.092C49.1555 197.652 49.3049 198.301 49.3049 199.038C49.3049 199.159 49.2675 199.257 49.1929 199.332C49.1182 199.397 49.0202 199.43 48.8989 199.43H42.7389V198.702H49.1229L48.5069 199.164C48.5255 198.557 48.4229 198.021 48.1989 197.554C47.9749 197.087 47.6529 196.723 47.2329 196.462C46.8222 196.191 46.3369 196.056 45.7769 196.056C45.2449 196.056 44.7689 196.191 44.3489 196.462C43.9382 196.723 43.6115 197.087 43.3689 197.554C43.1355 198.021 43.0189 198.562 43.0189 199.178C43.0189 199.785 43.1449 200.321 43.3969 200.788C43.6489 201.255 43.9989 201.623 44.4469 201.894C44.8949 202.155 45.4082 202.286 45.9869 202.286C46.3509 202.286 46.7149 202.225 47.0789 202.104C47.4522 201.973 47.7462 201.805 47.9609 201.6C48.0355 201.525 48.1242 201.488 48.2269 201.488C48.3389 201.479 48.4322 201.507 48.5069 201.572C48.6095 201.656 48.6609 201.749 48.6609 201.852C48.6702 201.955 48.6282 202.048 48.5349 202.132C48.2362 202.403 47.8442 202.627 47.3589 202.804C46.8829 202.981 46.4255 203.07 45.9869 203.07ZM54.3567 203.084C53.5913 203.084 52.9147 202.916 52.3267 202.58C51.7387 202.244 51.2767 201.782 50.9407 201.194C50.6047 200.606 50.4367 199.934 50.4367 199.178C50.4367 198.413 50.6093 197.736 50.9547 197.148C51.3 196.56 51.7667 196.098 52.3547 195.762C52.952 195.426 53.6193 195.258 54.3567 195.258C55.122 195.258 55.794 195.426 56.3727 195.762C56.9607 196.098 57.4227 196.56 57.7587 197.148C58.0947 197.736 58.2627 198.413 58.2627 199.178L57.7727 199.738C57.7727 200.391 57.628 200.97 57.3387 201.474C57.0493 201.978 56.648 202.375 56.1347 202.664C55.6213 202.944 55.0287 203.084 54.3567 203.084ZM54.4127 205.926C53.638 205.926 52.9753 205.781 52.4247 205.492C51.8833 205.203 51.4353 204.834 51.0807 204.386C51.006 204.293 50.9687 204.195 50.9687 204.092C50.9687 203.989 51.0153 203.901 51.1087 203.826C51.202 203.761 51.3093 203.737 51.4307 203.756C51.5613 203.775 51.6593 203.835 51.7247 203.938C52.014 204.283 52.3827 204.568 52.8307 204.792C53.2787 205.025 53.806 205.142 54.4127 205.142C54.9913 205.142 55.5047 205.002 55.9527 204.722C56.41 204.442 56.7693 204.055 57.0307 203.56C57.292 203.075 57.4227 202.529 57.4227 201.922V199.696L57.8007 199.178H58.2627V201.922C58.2627 202.678 58.0947 203.359 57.7587 203.966C57.4227 204.573 56.9653 205.049 56.3867 205.394C55.808 205.749 55.15 205.926 54.4127 205.926ZM54.3567 202.3C54.954 202.3 55.4813 202.169 55.9387 201.908C56.4053 201.637 56.7693 201.269 57.0307 200.802C57.292 200.326 57.4227 199.785 57.4227 199.178C57.4227 198.562 57.292 198.021 57.0307 197.554C56.7693 197.078 56.4053 196.709 55.9387 196.448C55.4813 196.177 54.954 196.042 54.3567 196.042C53.7593 196.042 53.2273 196.177 52.7607 196.448C52.294 196.709 51.93 197.078 51.6687 197.554C51.4073 198.021 51.2767 198.562 51.2767 199.178C51.2767 199.785 51.4073 200.326 51.6687 200.802C51.93 201.269 52.294 201.637 52.7607 201.908C53.2273 202.169 53.7593 202.3 54.3567 202.3ZM64.2188 203C64.0975 203 63.9948 202.963 63.9108 202.888C63.8361 202.804 63.7988 202.701 63.7988 202.58V199.598H62.3288L59.8508 202.874C59.7855 202.967 59.6921 203.009 59.5708 203C59.4588 203 59.3655 202.963 59.2908 202.888C59.2068 202.804 59.1648 202.715 59.1648 202.622C59.1741 202.519 59.2115 202.421 59.2768 202.328L61.6848 199.15L59.5988 196C59.5335 195.897 59.4961 195.799 59.4868 195.706C59.4868 195.603 59.5335 195.515 59.6268 195.44C59.7108 195.365 59.7948 195.333 59.8788 195.342C59.9721 195.351 60.0561 195.393 60.1308 195.468L62.3708 198.842H63.7988V195.762C63.7988 195.631 63.8361 195.529 63.9108 195.454C63.9948 195.379 64.0975 195.342 64.2188 195.342C64.3495 195.342 64.4521 195.379 64.5268 195.454C64.6015 195.529 64.6388 195.631 64.6388 195.762V198.842H66.0248L68.3068 195.468C68.3815 195.393 68.4608 195.351 68.5448 195.342C68.6381 195.333 68.7268 195.365 68.8108 195.44C68.9041 195.515 68.9461 195.603 68.9368 195.706C68.9368 195.799 68.9041 195.897 68.8388 196L66.7528 199.15L69.1608 202.328C69.2355 202.421 69.2728 202.519 69.2728 202.622C69.2728 202.715 69.2308 202.804 69.1468 202.888C69.0721 202.963 68.9788 203 68.8668 203C68.7548 203.009 68.6615 202.967 68.5868 202.874L66.1088 199.598H64.6388V202.58C64.6388 202.701 64.6015 202.804 64.5268 202.888C64.4521 202.963 64.3495 203 64.2188 203ZM73.7134 203.07C72.9761 203.07 72.3181 202.907 71.7394 202.58C71.1701 202.244 70.7221 201.782 70.3954 201.194C70.0688 200.606 69.9054 199.934 69.9054 199.178C69.9054 198.413 70.0594 197.741 70.3674 197.162C70.6754 196.574 71.1001 196.112 71.6414 195.776C72.1828 195.44 72.8034 195.272 73.5034 195.272C74.1941 195.272 74.8054 195.435 75.3374 195.762C75.8694 196.079 76.2848 196.523 76.5834 197.092C76.8821 197.652 77.0314 198.301 77.0314 199.038C77.0314 199.159 76.9941 199.257 76.9194 199.332C76.8448 199.397 76.7468 199.43 76.6254 199.43H70.4654V198.702H76.8494L76.2334 199.164C76.2521 198.557 76.1494 198.021 75.9254 197.554C75.7014 197.087 75.3794 196.723 74.9594 196.462C74.5488 196.191 74.0634 196.056 73.5034 196.056C72.9714 196.056 72.4954 196.191 72.0754 196.462C71.6648 196.723 71.3381 197.087 71.0954 197.554C70.8621 198.021 70.7454 198.562 70.7454 199.178C70.7454 199.785 70.8714 200.321 71.1234 200.788C71.3754 201.255 71.7254 201.623 72.1734 201.894C72.6214 202.155 73.1348 202.286 73.7134 202.286C74.0774 202.286 74.4414 202.225 74.8054 202.104C75.1788 201.973 75.4728 201.805 75.6874 201.6C75.7621 201.525 75.8508 201.488 75.9534 201.488C76.0654 201.479 76.1588 201.507 76.2334 201.572C76.3361 201.656 76.3874 201.749 76.3874 201.852C76.3968 201.955 76.3548 202.048 76.2614 202.132C75.9628 202.403 75.5708 202.627 75.0854 202.804C74.6094 202.981 74.1521 203.07 73.7134 203.07ZM79.2767 206.276C79.1553 206.276 79.0527 206.234 78.9687 206.15C78.894 206.075 78.8567 205.977 78.8567 205.856V199.094C78.8753 198.357 79.0527 197.703 79.3887 197.134C79.734 196.555 80.2007 196.098 80.7887 195.762C81.3767 195.426 82.0347 195.258 82.7627 195.258C83.5093 195.258 84.1767 195.431 84.7647 195.776C85.362 196.112 85.8287 196.579 86.1647 197.176C86.51 197.764 86.6827 198.431 86.6827 199.178C86.6827 199.915 86.51 200.583 86.1647 201.18C85.8287 201.768 85.362 202.235 84.7647 202.58C84.1767 202.916 83.5093 203.084 82.7627 203.084C82.0907 203.084 81.484 202.939 80.9427 202.65C80.4107 202.361 79.9953 201.973 79.6967 201.488V205.856C79.6967 205.977 79.6593 206.075 79.5847 206.15C79.51 206.234 79.4073 206.276 79.2767 206.276ZM82.7627 202.3C83.3507 202.3 83.8733 202.165 84.3307 201.894C84.7973 201.614 85.166 201.241 85.4367 200.774C85.7073 200.298 85.8427 199.766 85.8427 199.178C85.8427 198.581 85.7073 198.049 85.4367 197.582C85.166 197.106 84.7973 196.733 84.3307 196.462C83.8733 196.182 83.3507 196.042 82.7627 196.042C82.184 196.042 81.6613 196.182 81.1947 196.462C80.728 196.733 80.3593 197.106 80.0887 197.582C79.8273 198.049 79.6967 198.581 79.6967 199.178C79.6967 199.766 79.8273 200.298 80.0887 200.774C80.3593 201.241 80.728 201.614 81.1947 201.894C81.6613 202.165 82.184 202.3 82.7627 202.3Z" fill="#FEFEFE"/>
<circle cx="50" cy="190" r="49.5" transform="rotate(-90 50 190)" stroke="#FEFEFE"/>
<path d="M151.957 49.112C151.518 49.112 151.093 48.958 150.683 48.65C150.571 48.566 150.515 48.4727 150.515 48.37C150.515 48.2673 150.561 48.1647 150.655 48.062C150.748 47.9593 150.841 47.9127 150.935 47.922C151.037 47.922 151.14 47.9593 151.243 48.034C151.364 48.118 151.476 48.1787 151.579 48.216C151.691 48.2533 151.826 48.272 151.985 48.272C152.293 48.272 152.596 48.1413 152.895 47.88C153.203 47.6187 153.469 47.2453 153.693 46.76L157.557 38.332C157.669 38.08 157.855 38.01 158.117 38.122C158.369 38.234 158.439 38.416 158.327 38.668L154.449 47.11C154.159 47.7447 153.791 48.2393 153.343 48.594C152.904 48.9393 152.442 49.112 151.957 49.112ZM154.043 46.788L149.367 38.71C149.217 38.458 149.269 38.2667 149.521 38.136C149.773 38.0053 149.964 38.0613 150.095 38.304L154.659 46.368L154.043 46.788ZM160.821 49C160.699 49 160.597 48.9627 160.513 48.888C160.438 48.804 160.401 48.7013 160.401 48.58V41.748C160.41 41.6267 160.452 41.5287 160.527 41.454C160.601 41.3793 160.699 41.342 160.821 41.342C160.951 41.342 161.054 41.3793 161.129 41.454C161.203 41.5287 161.241 41.6313 161.241 41.762V44.604H164.349V44.744C164.825 44.744 165.24 44.8327 165.595 45.01C165.959 45.1873 166.243 45.43 166.449 45.738C166.654 46.046 166.757 46.4007 166.757 46.802C166.757 47.2313 166.654 47.614 166.449 47.95C166.243 48.2767 165.959 48.5333 165.595 48.72C165.24 48.9067 164.825 49 164.349 49H160.821ZM161.241 48.244H164.349C164.815 48.244 165.193 48.1273 165.483 47.894C165.772 47.6513 165.917 47.2873 165.917 46.802C165.917 46.3073 165.772 45.9433 165.483 45.71C165.193 45.4767 164.815 45.36 164.349 45.36H161.241V48.244ZM162.781 45.108V44.604H164.209C164.591 44.604 164.904 44.4873 165.147 44.254C165.399 44.0207 165.525 43.7173 165.525 43.344C165.525 42.9987 165.399 42.7047 165.147 42.462C164.904 42.2193 164.591 42.098 164.209 42.098H160.849V41.342H164.209C164.629 41.342 164.997 41.426 165.315 41.594C165.641 41.762 165.898 42 166.085 42.308C166.271 42.6067 166.365 42.952 166.365 43.344C166.365 43.9787 166.164 44.4313 165.763 44.702C165.361 44.9727 164.843 45.108 164.209 45.108H162.781ZM172.033 49.07C171.295 49.07 170.637 48.9067 170.059 48.58C169.489 48.244 169.041 47.782 168.715 47.194C168.388 46.606 168.225 45.934 168.225 45.178C168.225 44.4127 168.379 43.7407 168.687 43.162C168.995 42.574 169.419 42.112 169.961 41.776C170.502 41.44 171.123 41.272 171.823 41.272C172.513 41.272 173.125 41.4353 173.657 41.762C174.189 42.0793 174.604 42.5227 174.903 43.092C175.201 43.652 175.351 44.3007 175.351 45.038C175.351 45.1593 175.313 45.2573 175.239 45.332C175.164 45.3973 175.066 45.43 174.945 45.43H168.785V44.702H175.169L174.553 45.164C174.571 44.5573 174.469 44.0207 174.245 43.554C174.021 43.0873 173.699 42.7233 173.279 42.462C172.868 42.1913 172.383 42.056 171.823 42.056C171.291 42.056 170.815 42.1913 170.395 42.462C169.984 42.7233 169.657 43.0873 169.415 43.554C169.181 44.0207 169.065 44.562 169.065 45.178C169.065 45.7847 169.191 46.3213 169.443 46.788C169.695 47.2547 170.045 47.6233 170.493 47.894C170.941 48.1553 171.454 48.286 172.033 48.286C172.397 48.286 172.761 48.2253 173.125 48.104C173.498 47.9733 173.792 47.8053 174.007 47.6C174.081 47.5253 174.17 47.488 174.273 47.488C174.385 47.4787 174.478 47.5067 174.553 47.572C174.655 47.656 174.707 47.7493 174.707 47.852C174.716 47.9547 174.674 48.048 174.581 48.132C174.282 48.4027 173.89 48.6267 173.405 48.804C172.929 48.9813 172.471 49.07 172.033 49.07ZM180.403 49.084C179.637 49.084 178.961 48.916 178.373 48.58C177.785 48.244 177.323 47.782 176.987 47.194C176.651 46.606 176.483 45.934 176.483 45.178C176.483 44.4127 176.655 43.736 177.001 43.148C177.346 42.56 177.813 42.098 178.401 41.762C178.998 41.426 179.665 41.258 180.403 41.258C181.168 41.258 181.84 41.426 182.419 41.762C183.007 42.098 183.469 42.56 183.805 43.148C184.141 43.736 184.309 44.4127 184.309 45.178L183.819 45.738C183.819 46.3913 183.674 46.97 183.385 47.474C183.095 47.978 182.694 48.3747 182.181 48.664C181.667 48.944 181.075 49.084 180.403 49.084ZM180.459 51.926C179.684 51.926 179.021 51.7813 178.471 51.492C177.929 51.2027 177.481 50.834 177.127 50.386C177.052 50.2927 177.015 50.1947 177.015 50.092C177.015 49.9893 177.061 49.9053 177.155 49.84C177.248 49.7653 177.355 49.7373 177.477 49.756C177.607 49.7747 177.705 49.8353 177.771 49.938C178.06 50.2833 178.429 50.568 178.877 50.792C179.325 51.0253 179.852 51.142 180.459 51.142C181.037 51.142 181.551 51.002 181.999 50.722C182.456 50.442 182.815 50.0547 183.077 49.56C183.338 49.0747 183.469 48.5287 183.469 47.922V45.696L183.847 45.178H184.309V47.922C184.309 48.678 184.141 49.3593 183.805 49.966C183.469 50.5727 183.011 51.0487 182.433 51.394C181.854 51.7487 181.196 51.926 180.459 51.926ZM180.403 48.3C181 48.3 181.527 48.1693 181.985 47.908C182.451 47.6373 182.815 47.2687 183.077 46.802C183.338 46.326 183.469 45.7847 183.469 45.178C183.469 44.562 183.338 44.0207 183.077 43.554C182.815 43.078 182.451 42.7093 181.985 42.448C181.527 42.1773 181 42.042 180.403 42.042C179.805 42.042 179.273 42.1773 178.807 42.448C178.34 42.7093 177.976 43.078 177.715 43.554C177.453 44.0207 177.323 44.562 177.323 45.178C177.323 45.7847 177.453 46.326 177.715 46.802C177.976 47.2687 178.34 47.6373 178.807 47.908C179.273 48.1693 179.805 48.3 180.403 48.3ZM189.905 49.084C189.158 49.084 188.486 48.916 187.889 48.58C187.301 48.2347 186.834 47.768 186.489 47.18C186.153 46.5827 185.985 45.9153 185.985 45.178C185.985 44.4313 186.153 43.764 186.489 43.176C186.834 42.5787 187.301 42.112 187.889 41.776C188.486 41.4307 189.158 41.258 189.905 41.258C190.651 41.258 191.319 41.4307 191.907 41.776C192.495 42.112 192.957 42.5787 193.293 43.176C193.638 43.764 193.811 44.4313 193.811 45.178C193.811 45.9153 193.638 46.5827 193.293 47.18C192.957 47.768 192.495 48.2347 191.907 48.58C191.319 48.916 190.651 49.084 189.905 49.084ZM189.905 48.3C190.493 48.3 191.015 48.1647 191.473 47.894C191.939 47.614 192.303 47.2407 192.565 46.774C192.835 46.298 192.971 45.7613 192.971 45.164C192.971 44.576 192.835 44.0487 192.565 43.582C192.303 43.106 191.939 42.7327 191.473 42.462C191.015 42.182 190.493 42.042 189.905 42.042C189.326 42.042 188.803 42.182 188.337 42.462C187.87 42.7327 187.501 43.106 187.231 43.582C186.96 44.0487 186.825 44.5807 186.825 45.178C186.825 45.766 186.96 46.298 187.231 46.774C187.501 47.2407 187.87 47.614 188.337 47.894C188.803 48.1647 189.326 48.3 189.905 48.3ZM196.326 49C196.196 49 196.093 48.9627 196.018 48.888C195.944 48.8133 195.906 48.7107 195.906 48.58V41.762C195.906 41.622 195.944 41.5193 196.018 41.454C196.093 41.3793 196.196 41.342 196.326 41.342C196.532 41.342 196.695 41.4353 196.816 41.622L200.036 46.298L203.256 41.622C203.378 41.4353 203.541 41.342 203.746 41.342C203.877 41.342 203.98 41.3793 204.054 41.454C204.129 41.5193 204.166 41.622 204.166 41.762V48.58C204.166 48.7107 204.129 48.8133 204.054 48.888C203.98 48.9627 203.877 49 203.746 49C203.606 49 203.499 48.9627 203.424 48.888C203.359 48.8133 203.326 48.7107 203.326 48.58V42.182L203.676 42.294L200.386 47.096C200.293 47.2173 200.176 47.278 200.036 47.278C199.896 47.278 199.78 47.2173 199.686 47.096L196.382 42.35L196.746 42.238V48.58C196.746 48.72 196.709 48.8273 196.634 48.902C196.569 48.9673 196.466 49 196.326 49ZM209.522 41.328C209.615 41.328 209.704 41.3513 209.788 41.398C209.872 41.4447 209.933 41.5193 209.97 41.622L213.12 48.468C213.167 48.5613 213.167 48.6593 213.12 48.762C213.083 48.8647 213.013 48.9393 212.91 48.986C212.807 49.0327 212.7 49.0373 212.588 49C212.485 48.9627 212.411 48.8927 212.364 48.79L209.284 42H209.858L206.722 48.776C206.675 48.8787 206.591 48.9487 206.47 48.986C206.358 49.0233 206.251 49.0187 206.148 48.972C206.045 48.9253 205.975 48.8507 205.938 48.748C205.901 48.6453 205.901 48.5473 205.938 48.454L209.13 41.622C209.233 41.426 209.363 41.328 209.522 41.328ZM218.298 49.07C217.561 49.07 216.903 48.9067 216.324 48.58C215.755 48.244 215.307 47.782 214.98 47.194C214.654 46.606 214.49 45.934 214.49 45.178C214.49 44.4127 214.644 43.7407 214.952 43.162C215.26 42.574 215.685 42.112 216.226 41.776C216.768 41.44 217.388 41.272 218.088 41.272C218.779 41.272 219.39 41.4353 219.922 41.762C220.454 42.0793 220.87 42.5227 221.168 43.092C221.467 43.652 221.616 44.3007 221.616 45.038C221.616 45.1593 221.579 45.2573 221.504 45.332C221.43 45.3973 221.332 45.43 221.21 45.43H215.05V44.702H221.434L220.818 45.164C220.837 44.5573 220.734 44.0207 220.51 43.554C220.286 43.0873 219.964 42.7233 219.544 42.462C219.134 42.1913 218.648 42.056 218.088 42.056C217.556 42.056 217.08 42.1913 216.66 42.462C216.25 42.7233 215.923 43.0873 215.68 43.554C215.447 44.0207 215.33 44.562 215.33 45.178C215.33 45.7847 215.456 46.3213 215.708 46.788C215.96 47.2547 216.31 47.6233 216.758 47.894C217.206 48.1553 217.72 48.286 218.298 48.286C218.662 48.286 219.026 48.2253 219.39 48.104C219.764 47.9733 220.058 47.8053 220.272 47.6C220.347 47.5253 220.436 47.488 220.538 47.488C220.65 47.4787 220.744 47.5067 220.818 47.572C220.921 47.656 220.972 47.7493 220.972 47.852C220.982 47.9547 220.94 48.048 220.846 48.132C220.548 48.4027 220.156 48.6267 219.67 48.804C219.194 48.9813 218.737 49.07 218.298 49.07ZM230.064 49C229.942 49 229.84 48.9627 229.756 48.888C229.681 48.804 229.644 48.7013 229.644 48.58V41.762C229.644 41.6313 229.681 41.5287 229.756 41.454C229.84 41.3793 229.942 41.342 230.064 41.342C230.194 41.342 230.297 41.3793 230.372 41.454C230.446 41.5287 230.484 41.6313 230.484 41.762V48.58C230.484 48.7013 230.446 48.804 230.372 48.888C230.297 48.9627 230.194 49 230.064 49ZM223.862 49C223.74 49 223.638 48.9627 223.554 48.888C223.479 48.804 223.442 48.7013 223.442 48.58V41.762C223.442 41.6313 223.479 41.5287 223.554 41.454C223.638 41.3793 223.74 41.342 223.862 41.342C223.992 41.342 224.095 41.3793 224.17 41.454C224.244 41.5287 224.282 41.6313 224.282 41.762V48.58C224.282 48.7013 224.244 48.804 224.17 48.888C224.095 48.9627 223.992 49 223.862 49ZM224.1 45.598V44.842H229.994V45.598H224.1ZM236.4 49.098C235.728 49.098 235.126 48.9627 234.594 48.692C234.062 48.412 233.638 48.006 233.32 47.474C233.012 46.942 232.858 46.2933 232.858 45.528V41.762C232.858 41.6407 232.896 41.5427 232.97 41.468C233.054 41.384 233.157 41.342 233.278 41.342C233.4 41.342 233.498 41.384 233.572 41.468C233.656 41.5427 233.698 41.6407 233.698 41.762V45.528C233.698 46.1347 233.815 46.6433 234.048 47.054C234.291 47.4553 234.613 47.7587 235.014 47.964C235.425 48.16 235.887 48.258 236.4 48.258C236.904 48.258 237.357 48.16 237.758 47.964C238.16 47.768 238.477 47.5067 238.71 47.18C238.944 46.844 239.06 46.466 239.06 46.046H239.76C239.723 46.6247 239.55 47.1473 239.242 47.614C238.934 48.0713 238.533 48.4353 238.038 48.706C237.553 48.9673 237.007 49.098 236.4 49.098ZM239.48 49C239.359 49 239.256 48.9627 239.172 48.888C239.098 48.804 239.06 48.7013 239.06 48.58V41.762C239.06 41.6313 239.098 41.5287 239.172 41.454C239.256 41.3793 239.359 41.342 239.48 41.342C239.611 41.342 239.714 41.3793 239.788 41.454C239.863 41.5287 239.9 41.6313 239.9 41.762V48.58C239.9 48.7013 239.863 48.804 239.788 48.888C239.714 48.9627 239.611 49 239.48 49ZM245.806 49.07C245.069 49.07 244.411 48.9067 243.832 48.58C243.263 48.244 242.815 47.782 242.488 47.194C242.162 46.606 241.998 45.934 241.998 45.178C241.998 44.4127 242.152 43.7407 242.46 43.162C242.768 42.574 243.193 42.112 243.734 41.776C244.276 41.44 244.896 41.272 245.596 41.272C246.287 41.272 246.898 41.4353 247.43 41.762C247.962 42.0793 248.378 42.5227 248.676 43.092C248.975 43.652 249.124 44.3007 249.124 45.038C249.124 45.1593 249.087 45.2573 249.012 45.332C248.938 45.3973 248.84 45.43 248.718 45.43H242.558V44.702H248.942L248.326 45.164C248.345 44.5573 248.242 44.0207 248.018 43.554C247.794 43.0873 247.472 42.7233 247.052 42.462C246.642 42.1913 246.156 42.056 245.596 42.056C245.064 42.056 244.588 42.1913 244.168 42.462C243.758 42.7233 243.431 43.0873 243.188 43.554C242.955 44.0207 242.838 44.562 242.838 45.178C242.838 45.7847 242.964 46.3213 243.216 46.788C243.468 47.2547 243.818 47.6233 244.266 47.894C244.714 48.1553 245.228 48.286 245.806 48.286C246.17 48.286 246.534 48.2253 246.898 48.104C247.272 47.9733 247.566 47.8053 247.78 47.6C247.855 47.5253 247.944 47.488 248.046 47.488C248.158 47.4787 248.252 47.5067 248.326 47.572C248.429 47.656 248.48 47.7493 248.48 47.852C248.49 47.9547 248.448 48.048 248.354 48.132C248.056 48.4027 247.664 48.6267 247.178 48.804C246.702 48.9813 246.245 49.07 245.806 49.07ZM158.883 65.084C158.136 65.084 157.464 64.916 156.867 64.58C156.279 64.2347 155.812 63.768 155.467 63.18C155.131 62.5827 154.963 61.9153 154.963 61.178C154.963 60.4313 155.131 59.764 155.467 59.176C155.812 58.5787 156.279 58.112 156.867 57.776C157.464 57.4307 158.136 57.258 158.883 57.258C159.63 57.258 160.297 57.4307 160.885 57.776C161.473 58.112 161.935 58.5787 162.271 59.176C162.616 59.764 162.789 60.4313 162.789 61.178C162.789 61.9153 162.616 62.5827 162.271 63.18C161.935 63.768 161.473 64.2347 160.885 64.58C160.297 64.916 159.63 65.084 158.883 65.084ZM158.883 64.3C159.471 64.3 159.994 64.1647 160.451 63.894C160.918 63.614 161.282 63.2407 161.543 62.774C161.814 62.298 161.949 61.7613 161.949 61.164C161.949 60.576 161.814 60.0487 161.543 59.582C161.282 59.106 160.918 58.7327 160.451 58.462C159.994 58.182 159.471 58.042 158.883 58.042C158.304 58.042 157.782 58.182 157.315 58.462C156.848 58.7327 156.48 59.106 156.209 59.582C155.938 60.0487 155.803 60.5807 155.803 61.178C155.803 61.766 155.938 62.298 156.209 62.774C156.48 63.2407 156.848 63.614 157.315 63.894C157.782 64.1647 158.304 64.3 158.883 64.3ZM172.375 65.084C171.647 65.084 170.993 64.9113 170.415 64.566C169.845 64.2207 169.393 63.754 169.057 63.166C168.73 62.578 168.567 61.9153 168.567 61.178C168.567 60.4313 168.721 59.764 169.029 59.176C169.337 58.588 169.761 58.126 170.303 57.79C170.844 57.4447 171.465 57.272 172.165 57.272C172.762 57.272 173.308 57.3887 173.803 57.622C174.297 57.846 174.727 58.1913 175.091 58.658C175.165 58.7513 175.193 58.8493 175.175 58.952C175.156 59.0547 175.095 59.1387 174.993 59.204C174.909 59.2693 174.815 59.2973 174.713 59.288C174.61 59.2693 174.521 59.2133 174.447 59.12C173.849 58.4107 173.089 58.056 172.165 58.056C171.614 58.056 171.129 58.1913 170.709 58.462C170.298 58.7327 169.976 59.1013 169.743 59.568C169.519 60.0347 169.407 60.5713 169.407 61.178C169.407 61.766 169.533 62.298 169.785 62.774C170.037 63.2407 170.382 63.614 170.821 63.894C171.269 64.1647 171.787 64.3 172.375 64.3C172.757 64.3 173.117 64.244 173.453 64.132C173.798 64.02 174.097 63.8473 174.349 63.614C174.433 63.5393 174.526 63.4973 174.629 63.488C174.731 63.4787 174.82 63.5113 174.895 63.586C174.988 63.67 175.035 63.768 175.035 63.88C175.044 63.9827 175.007 64.0713 174.923 64.146C174.241 64.7713 173.392 65.084 172.375 65.084ZM187.827 65C187.706 65 187.603 64.9627 187.519 64.888C187.445 64.804 187.407 64.7013 187.407 64.58V60.534C187.407 59.8153 187.216 59.2273 186.833 58.77C186.46 58.3127 185.97 58.084 185.363 58.084C184.719 58.084 184.192 58.2987 183.781 58.728C183.38 59.148 183.189 59.7173 183.207 60.436H182.367C182.386 59.792 182.526 59.232 182.787 58.756C183.049 58.28 183.403 57.9113 183.851 57.65C184.299 57.3793 184.803 57.244 185.363 57.244C185.933 57.244 186.432 57.384 186.861 57.664C187.291 57.944 187.627 58.3313 187.869 58.826C188.121 59.3207 188.247 59.89 188.247 60.534V64.58C188.247 64.7013 188.21 64.804 188.135 64.888C188.061 64.9627 187.958 65 187.827 65ZM177.705 65C177.584 65 177.481 64.9627 177.397 64.888C177.323 64.804 177.285 64.7013 177.285 64.58V57.762C177.285 57.6313 177.323 57.5287 177.397 57.454C177.481 57.3793 177.584 57.342 177.705 57.342C177.836 57.342 177.939 57.3793 178.013 57.454C178.088 57.5287 178.125 57.6313 178.125 57.762V64.58C178.125 64.7013 178.088 64.804 178.013 64.888C177.939 64.9627 177.836 65 177.705 65ZM182.787 65C182.666 65 182.563 64.9627 182.479 64.888C182.405 64.804 182.367 64.7013 182.367 64.58V60.534C182.367 59.8153 182.176 59.2273 181.793 58.77C181.42 58.3127 180.93 58.084 180.323 58.084C179.679 58.084 179.152 58.2893 178.741 58.7C178.331 59.1107 178.125 59.6427 178.125 60.296H177.425C177.453 59.6987 177.593 59.1713 177.845 58.714C178.107 58.2567 178.452 57.8973 178.881 57.636C179.311 57.3747 179.791 57.244 180.323 57.244C180.893 57.244 181.392 57.384 181.821 57.664C182.251 57.944 182.587 58.3313 182.829 58.826C183.081 59.3207 183.207 59.89 183.207 60.534V64.58C183.207 64.7013 183.17 64.804 183.095 64.888C183.021 64.9627 182.918 65 182.787 65ZM194.129 65.084C193.382 65.084 192.71 64.916 192.113 64.58C191.525 64.2347 191.058 63.768 190.713 63.18C190.377 62.5827 190.209 61.9153 190.209 61.178C190.209 60.4313 190.377 59.764 190.713 59.176C191.058 58.5787 191.525 58.112 192.113 57.776C192.71 57.4307 193.382 57.258 194.129 57.258C194.876 57.258 195.543 57.4307 196.131 57.776C196.719 58.112 197.181 58.5787 197.517 59.176C197.862 59.764 198.035 60.4313 198.035 61.178L197.685 61.738C197.685 62.3727 197.526 62.942 197.209 63.446C196.901 63.95 196.481 64.3513 195.949 64.65C195.417 64.9393 194.81 65.084 194.129 65.084ZM194.129 64.3C194.717 64.3 195.24 64.1647 195.697 63.894C196.164 63.614 196.528 63.2407 196.789 62.774C197.06 62.298 197.195 61.766 197.195 61.178C197.195 60.5807 197.06 60.0487 196.789 59.582C196.528 59.106 196.164 58.7327 195.697 58.462C195.24 58.182 194.717 58.042 194.129 58.042C193.55 58.042 193.028 58.182 192.561 58.462C192.094 58.7327 191.726 59.106 191.455 59.582C191.184 60.0487 191.049 60.5807 191.049 61.178C191.049 61.766 191.184 62.298 191.455 62.774C191.726 63.2407 192.094 63.614 192.561 63.894C193.028 64.1647 193.55 64.3 194.129 64.3ZM197.615 65C197.494 65 197.391 64.9627 197.307 64.888C197.232 64.804 197.195 64.7013 197.195 64.58V62.018L197.461 61.178H198.035V64.58C198.035 64.7013 197.998 64.804 197.923 64.888C197.848 64.9627 197.746 65 197.615 65ZM210.673 65C210.552 65 210.449 64.9627 210.365 64.888C210.29 64.804 210.253 64.7013 210.253 64.58V60.534C210.253 59.8153 210.062 59.2273 209.679 58.77C209.306 58.3127 208.816 58.084 208.209 58.084C207.565 58.084 207.038 58.2987 206.627 58.728C206.226 59.148 206.034 59.7173 206.053 60.436H205.213C205.232 59.792 205.372 59.232 205.633 58.756C205.894 58.28 206.249 57.9113 206.697 57.65C207.145 57.3793 207.649 57.244 208.209 57.244C208.778 57.244 209.278 57.384 209.707 57.664C210.136 57.944 210.472 58.3313 210.715 58.826C210.967 59.3207 211.093 59.89 211.093 60.534V64.58C211.093 64.7013 211.056 64.804 210.981 64.888C210.906 64.9627 210.804 65 210.673 65ZM200.551 65C200.43 65 200.327 64.9627 200.243 64.888C200.168 64.804 200.131 64.7013 200.131 64.58V57.762C200.131 57.6313 200.168 57.5287 200.243 57.454C200.327 57.3793 200.43 57.342 200.551 57.342C200.682 57.342 200.784 57.3793 200.859 57.454C200.934 57.5287 200.971 57.6313 200.971 57.762V64.58C200.971 64.7013 200.934 64.804 200.859 64.888C200.784 64.9627 200.682 65 200.551 65ZM205.633 65C205.512 65 205.409 64.9627 205.325 64.888C205.25 64.804 205.213 64.7013 205.213 64.58V60.534C205.213 59.8153 205.022 59.2273 204.639 58.77C204.266 58.3127 203.776 58.084 203.169 58.084C202.525 58.084 201.998 58.2893 201.587 58.7C201.176 59.1107 200.971 59.6427 200.971 60.296H200.271C200.299 59.6987 200.439 59.1713 200.691 58.714C200.952 58.2567 201.298 57.8973 201.727 57.636C202.156 57.3747 202.637 57.244 203.169 57.244C203.738 57.244 204.238 57.384 204.667 57.664C205.096 57.944 205.432 58.3313 205.675 58.826C205.927 59.3207 206.053 59.89 206.053 60.534V64.58C206.053 64.7013 206.016 64.804 205.941 64.888C205.866 64.9627 205.764 65 205.633 65ZM213.065 68.346C212.832 68.3553 212.608 68.3227 212.393 68.248C212.178 68.1733 211.964 68.0753 211.749 67.954C211.628 67.8793 211.558 67.7813 211.539 67.66C211.511 67.5387 211.544 67.4267 211.637 67.324C211.721 67.2307 211.819 67.1887 211.931 67.198C212.052 67.2167 212.174 67.2587 212.295 67.324C212.416 67.3893 212.533 67.436 212.645 67.464C212.757 67.5013 212.888 67.5153 213.037 67.506C213.364 67.4873 213.667 67.3473 213.947 67.086C214.236 66.834 214.484 66.47 214.689 65.994L218.259 57.608C218.306 57.496 218.38 57.4213 218.483 57.384C218.595 57.3373 218.707 57.3373 218.819 57.384C218.931 57.4307 219.006 57.5053 219.043 57.608C219.09 57.7107 219.09 57.8227 219.043 57.944L215.445 66.302C215.184 66.9273 214.843 67.4173 214.423 67.772C214.012 68.136 213.56 68.3273 213.065 68.346ZM215.809 64.818C215.688 64.874 215.58 64.888 215.487 64.86C215.394 64.832 215.319 64.7573 215.263 64.636L212.197 57.916C212.141 57.7947 212.127 57.6873 212.155 57.594C212.183 57.5007 212.258 57.426 212.379 57.37C212.5 57.314 212.608 57.3 212.701 57.328C212.794 57.356 212.869 57.4307 212.925 57.552L215.991 64.272C216.047 64.3933 216.061 64.5007 216.033 64.594C216.005 64.6873 215.93 64.762 215.809 64.818ZM224.136 65.084C223.408 65.084 222.755 64.9113 222.176 64.566C221.607 64.2207 221.154 63.754 220.818 63.166C220.492 62.578 220.328 61.9153 220.328 61.178C220.328 60.4313 220.482 59.764 220.79 59.176C221.098 58.588 221.523 58.126 222.064 57.79C222.606 57.4447 223.226 57.272 223.926 57.272C224.524 57.272 225.07 57.3887 225.564 57.622C226.059 57.846 226.488 58.1913 226.852 58.658C226.927 58.7513 226.955 58.8493 226.936 58.952C226.918 59.0547 226.857 59.1387 226.754 59.204C226.67 59.2693 226.577 59.2973 226.474 59.288C226.372 59.2693 226.283 59.2133 226.208 59.12C225.611 58.4107 224.85 58.056 223.926 58.056C223.376 58.056 222.89 58.1913 222.47 58.462C222.06 58.7327 221.738 59.1013 221.504 59.568C221.28 60.0347 221.168 60.5713 221.168 61.178C221.168 61.766 221.294 62.298 221.546 62.774C221.798 63.2407 222.144 63.614 222.582 63.894C223.03 64.1647 223.548 64.3 224.136 64.3C224.519 64.3 224.878 64.244 225.214 64.132C225.56 64.02 225.858 63.8473 226.11 63.614C226.194 63.5393 226.288 63.4973 226.39 63.488C226.493 63.4787 226.582 63.5113 226.656 63.586C226.75 63.67 226.796 63.768 226.796 63.88C226.806 63.9827 226.768 64.0713 226.684 64.146C226.003 64.7713 225.154 65.084 224.136 65.084ZM232.547 65.084C231.8 65.084 231.128 64.916 230.531 64.58C229.943 64.2347 229.476 63.768 229.131 63.18C228.795 62.5827 228.627 61.9153 228.627 61.178C228.627 60.4313 228.795 59.764 229.131 59.176C229.476 58.5787 229.943 58.112 230.531 57.776C231.128 57.4307 231.8 57.258 232.547 57.258C233.294 57.258 233.961 57.4307 234.549 57.776C235.137 58.112 235.599 58.5787 235.935 59.176C236.28 59.764 236.453 60.4313 236.453 61.178L236.103 61.738C236.103 62.3727 235.944 62.942 235.627 63.446C235.319 63.95 234.899 64.3513 234.367 64.65C233.835 64.9393 233.228 65.084 232.547 65.084ZM232.547 64.3C233.135 64.3 233.658 64.1647 234.115 63.894C234.582 63.614 234.946 63.2407 235.207 62.774C235.478 62.298 235.613 61.766 235.613 61.178C235.613 60.5807 235.478 60.0487 235.207 59.582C234.946 59.106 234.582 58.7327 234.115 58.462C233.658 58.182 233.135 58.042 232.547 58.042C231.968 58.042 231.446 58.182 230.979 58.462C230.512 58.7327 230.144 59.106 229.873 59.582C229.602 60.0487 229.467 60.5807 229.467 61.178C229.467 61.766 229.602 62.298 229.873 62.774C230.144 63.2407 230.512 63.614 230.979 63.894C231.446 64.1647 231.968 64.3 232.547 64.3ZM236.033 65C235.912 65 235.809 64.9627 235.725 64.888C235.65 64.804 235.613 64.7013 235.613 64.58V62.018L235.879 61.178H236.453V64.58C236.453 64.7013 236.416 64.804 236.341 64.888C236.266 64.9627 236.164 65 236.033 65ZM243.869 65C243.757 65 243.668 64.9813 243.603 64.944C243.538 64.8973 243.468 64.8273 243.393 64.734L240.985 61.542L240.635 61.276L238.185 58.042C238.11 57.9487 238.078 57.8507 238.087 57.748C238.096 57.636 238.138 57.5427 238.213 57.468C238.288 57.384 238.386 57.342 238.507 57.342C238.628 57.342 238.731 57.384 238.815 57.468L241.153 60.576L241.531 60.87L244.121 64.314C244.242 64.4633 244.284 64.5893 244.247 64.692C244.219 64.7947 244.163 64.874 244.079 64.93C243.995 64.9767 243.925 65 243.869 65ZM238.199 65C238.078 65 237.98 64.9627 237.905 64.888C237.83 64.8133 237.788 64.7247 237.779 64.622C237.77 64.51 237.802 64.4073 237.877 64.314L240.593 60.94L241.083 61.556L238.493 64.874C238.437 64.958 238.339 65 238.199 65ZM241.349 61.332L240.845 60.716L243.393 57.594C243.468 57.51 243.538 57.4493 243.603 57.412C243.678 57.3653 243.752 57.342 243.827 57.342C243.958 57.342 244.056 57.384 244.121 57.468C244.186 57.5427 244.219 57.636 244.219 57.748C244.219 57.8507 244.182 57.9487 244.107 58.042L241.349 61.332ZM174.167 81.14C173.785 81.14 173.402 81.0793 173.019 80.958C172.637 80.8367 172.291 80.6733 171.983 80.468C171.685 80.2533 171.451 80.0153 171.283 79.754C171.227 79.6513 171.223 79.5487 171.269 79.446C171.316 79.3433 171.4 79.264 171.521 79.208C171.605 79.1707 171.699 79.1753 171.801 79.222C171.904 79.2593 171.988 79.3247 172.053 79.418C172.296 79.6793 172.599 79.9033 172.963 80.09C173.327 80.2673 173.724 80.356 174.153 80.356C174.732 80.356 175.213 80.2347 175.595 79.992C175.987 79.74 176.183 79.3713 176.183 78.886C176.183 78.466 176.025 78.1067 175.707 77.808C175.399 77.5093 175.007 77.3507 174.531 77.332H173.887C173.738 77.332 173.612 77.2947 173.509 77.22C173.416 77.1453 173.369 77.052 173.369 76.94C173.369 76.828 173.416 76.7347 173.509 76.66C173.612 76.5853 173.738 76.548 173.887 76.548H174.531C174.914 76.548 175.231 76.4267 175.483 76.184C175.745 75.932 175.875 75.624 175.875 75.26C175.875 74.9053 175.712 74.6067 175.385 74.364C175.068 74.1213 174.667 74 174.181 74C173.687 74 173.295 74.0887 173.005 74.266C172.716 74.434 172.478 74.6487 172.291 74.91C172.226 75.0033 172.137 75.064 172.025 75.092C171.923 75.12 171.82 75.1107 171.717 75.064C171.596 75.008 171.517 74.9287 171.479 74.826C171.451 74.714 171.47 74.6067 171.535 74.504C171.825 74.1307 172.184 73.8227 172.613 73.58C173.052 73.328 173.575 73.202 174.181 73.202C174.667 73.202 175.096 73.2907 175.469 73.468C175.852 73.636 176.155 73.8693 176.379 74.168C176.603 74.4667 176.715 74.8073 176.715 75.19C176.715 75.4887 176.636 75.7687 176.477 76.03C176.328 76.2913 176.118 76.5107 175.847 76.688C175.586 76.8653 175.283 76.982 174.937 77.038V76.856C175.339 76.856 175.693 76.9447 176.001 77.122C176.319 77.2993 176.566 77.542 176.743 77.85C176.93 78.158 177.023 78.508 177.023 78.9C177.023 79.32 176.897 79.7027 176.645 80.048C176.403 80.384 176.067 80.65 175.637 80.846C175.208 81.042 174.718 81.14 174.167 81.14ZM182.412 81.084C181.666 81.084 180.994 80.916 180.396 80.58C179.808 80.2347 179.342 79.768 178.996 79.18C178.66 78.5827 178.492 77.9153 178.492 77.178C178.492 76.4313 178.66 75.764 178.996 75.176C179.342 74.5787 179.808 74.112 180.396 73.776C180.994 73.4307 181.666 73.258 182.412 73.258C183.159 73.258 183.826 73.4307 184.414 73.776C185.002 74.112 185.464 74.5787 185.8 75.176C186.146 75.764 186.318 76.4313 186.318 77.178L185.968 77.738C185.968 78.3727 185.81 78.942 185.492 79.446C185.184 79.95 184.764 80.3513 184.232 80.65C183.7 80.9393 183.094 81.084 182.412 81.084ZM182.412 80.3C183 80.3 183.523 80.1647 183.98 79.894C184.447 79.614 184.811 79.2407 185.072 78.774C185.343 78.298 185.478 77.766 185.478 77.178C185.478 76.5807 185.343 76.0487 185.072 75.582C184.811 75.106 184.447 74.7327 183.98 74.462C183.523 74.182 183 74.042 182.412 74.042C181.834 74.042 181.311 74.182 180.844 74.462C180.378 74.7327 180.009 75.106 179.738 75.582C179.468 76.0487 179.332 76.5807 179.332 77.178C179.332 77.766 179.468 78.298 179.738 78.774C180.009 79.2407 180.378 79.614 180.844 79.894C181.311 80.1647 181.834 80.3 182.412 80.3ZM185.898 81C185.777 81 185.674 80.9627 185.59 80.888C185.516 80.804 185.478 80.7013 185.478 80.58V78.018L185.744 77.178H186.318V80.58C186.318 80.7013 186.281 80.804 186.206 80.888C186.132 80.9627 186.029 81 185.898 81ZM194.182 80.888C194.108 80.9627 194.014 81 193.902 81C193.79 81.0093 193.697 80.9673 193.622 80.874L190.332 77.192L193.524 73.468C193.599 73.3933 193.678 73.3513 193.762 73.342C193.856 73.3327 193.944 73.3653 194.028 73.44C194.122 73.5147 194.168 73.6033 194.168 73.706C194.168 73.8087 194.131 73.9067 194.056 74L191.368 77.15L194.196 80.328C194.271 80.412 194.308 80.5053 194.308 80.608C194.308 80.7107 194.266 80.804 194.182 80.888ZM188.834 81C188.713 81 188.61 80.9627 188.526 80.888C188.452 80.804 188.414 80.7013 188.414 80.58V73.762C188.414 73.6313 188.452 73.5287 188.526 73.454C188.61 73.3793 188.713 73.342 188.834 73.342C188.965 73.342 189.068 73.3793 189.142 73.454C189.217 73.5287 189.254 73.6313 189.254 73.762V76.842H190.906V77.598H189.254V80.58C189.254 80.7013 189.217 80.804 189.142 80.888C189.068 80.9627 188.965 81 188.834 81ZM198.86 81.084C198.113 81.084 197.441 80.916 196.844 80.58C196.256 80.2347 195.789 79.768 195.444 79.18C195.108 78.5827 194.94 77.9153 194.94 77.178C194.94 76.4313 195.108 75.764 195.444 75.176C195.789 74.5787 196.256 74.112 196.844 73.776C197.441 73.4307 198.113 73.258 198.86 73.258C199.606 73.258 200.274 73.4307 200.862 73.776C201.45 74.112 201.912 74.5787 202.248 75.176C202.593 75.764 202.766 76.4313 202.766 77.178L202.416 77.738C202.416 78.3727 202.257 78.942 201.94 79.446C201.632 79.95 201.212 80.3513 200.68 80.65C200.148 80.9393 199.541 81.084 198.86 81.084ZM198.86 80.3C199.448 80.3 199.97 80.1647 200.428 79.894C200.894 79.614 201.258 79.2407 201.52 78.774C201.79 78.298 201.926 77.766 201.926 77.178C201.926 76.5807 201.79 76.0487 201.52 75.582C201.258 75.106 200.894 74.7327 200.428 74.462C199.97 74.182 199.448 74.042 198.86 74.042C198.281 74.042 197.758 74.182 197.292 74.462C196.825 74.7327 196.456 75.106 196.186 75.582C195.915 76.0487 195.78 76.5807 195.78 77.178C195.78 77.766 195.915 78.298 196.186 78.774C196.456 79.2407 196.825 79.614 197.292 79.894C197.758 80.1647 198.281 80.3 198.86 80.3ZM202.346 81C202.224 81 202.122 80.9627 202.038 80.888C201.963 80.804 201.926 80.7013 201.926 80.58V78.018L202.192 77.178H202.766V80.58C202.766 80.7013 202.728 80.804 202.654 80.888C202.579 80.9627 202.476 81 202.346 81ZM207.158 81.14C206.775 81.14 206.392 81.0793 206.01 80.958C205.627 80.8367 205.282 80.6733 204.974 80.468C204.675 80.2533 204.442 80.0153 204.274 79.754C204.218 79.6513 204.213 79.5487 204.26 79.446C204.306 79.3433 204.39 79.264 204.512 79.208C204.596 79.1707 204.689 79.1753 204.792 79.222C204.894 79.2593 204.978 79.3247 205.044 79.418C205.286 79.6793 205.59 79.9033 205.954 80.09C206.318 80.2673 206.714 80.356 207.144 80.356C207.722 80.356 208.203 80.2347 208.586 79.992C208.978 79.74 209.174 79.3713 209.174 78.886C209.174 78.466 209.015 78.1067 208.698 77.808C208.39 77.5093 207.998 77.3507 207.522 77.332H206.878C206.728 77.332 206.602 77.2947 206.5 77.22C206.406 77.1453 206.36 77.052 206.36 76.94C206.36 76.828 206.406 76.7347 206.5 76.66C206.602 76.5853 206.728 76.548 206.878 76.548H207.522C207.904 76.548 208.222 76.4267 208.474 76.184C208.735 75.932 208.866 75.624 208.866 75.26C208.866 74.9053 208.702 74.6067 208.376 74.364C208.058 74.1213 207.657 74 207.172 74C206.677 74 206.285 74.0887 205.996 74.266C205.706 74.434 205.468 74.6487 205.282 74.91C205.216 75.0033 205.128 75.064 205.016 75.092C204.913 75.12 204.81 75.1107 204.708 75.064C204.586 75.008 204.507 74.9287 204.47 74.826C204.442 74.714 204.46 74.6067 204.526 74.504C204.815 74.1307 205.174 73.8227 205.604 73.58C206.042 73.328 206.565 73.202 207.172 73.202C207.657 73.202 208.086 73.2907 208.46 73.468C208.842 73.636 209.146 73.8693 209.37 74.168C209.594 74.4667 209.706 74.8073 209.706 75.19C209.706 75.4887 209.626 75.7687 209.468 76.03C209.318 76.2913 209.108 76.5107 208.838 76.688C208.576 76.8653 208.273 76.982 207.928 77.038V76.856C208.329 76.856 208.684 76.9447 208.992 77.122C209.309 77.2993 209.556 77.542 209.734 77.85C209.92 78.158 210.014 78.508 210.014 78.9C210.014 79.32 209.888 79.7027 209.636 80.048C209.393 80.384 209.057 80.65 208.628 80.846C208.198 81.042 207.708 81.14 207.158 81.14ZM215.403 81.084C214.656 81.084 213.984 80.916 213.387 80.58C212.799 80.2347 212.332 79.768 211.987 79.18C211.651 78.5827 211.483 77.9153 211.483 77.178C211.483 76.4313 211.651 75.764 211.987 75.176C212.332 74.5787 212.799 74.112 213.387 73.776C213.984 73.4307 214.656 73.258 215.403 73.258C216.149 73.258 216.817 73.4307 217.405 73.776C217.993 74.112 218.455 74.5787 218.791 75.176C219.136 75.764 219.309 76.4313 219.309 77.178C219.309 77.9153 219.136 78.5827 218.791 79.18C218.455 79.768 217.993 80.2347 217.405 80.58C216.817 80.916 216.149 81.084 215.403 81.084ZM215.403 80.3C215.991 80.3 216.513 80.1647 216.971 79.894C217.437 79.614 217.801 79.2407 218.063 78.774C218.333 78.298 218.469 77.7613 218.469 77.164C218.469 76.576 218.333 76.0487 218.063 75.582C217.801 75.106 217.437 74.7327 216.971 74.462C216.513 74.182 215.991 74.042 215.403 74.042C214.824 74.042 214.301 74.182 213.835 74.462C213.368 74.7327 212.999 75.106 212.729 75.582C212.458 76.0487 212.323 76.5807 212.323 77.178C212.323 77.766 212.458 78.298 212.729 78.774C212.999 79.2407 213.368 79.614 213.835 79.894C214.301 80.1647 214.824 80.3 215.403 80.3ZM221.825 81C221.703 81 221.601 80.9627 221.517 80.888C221.442 80.804 221.405 80.7013 221.405 80.58V73.748C221.414 73.6267 221.456 73.5287 221.531 73.454C221.605 73.3793 221.703 73.342 221.825 73.342C221.955 73.342 222.058 73.3793 222.133 73.454C222.207 73.5287 222.245 73.6313 222.245 73.762V76.604H225.353V76.744C225.829 76.744 226.244 76.8327 226.599 77.01C226.963 77.1873 227.247 77.43 227.453 77.738C227.658 78.046 227.761 78.4007 227.761 78.802C227.761 79.2313 227.658 79.614 227.453 79.95C227.247 80.2767 226.963 80.5333 226.599 80.72C226.244 80.9067 225.829 81 225.353 81H221.825ZM222.245 80.244H225.353C225.819 80.244 226.197 80.1273 226.487 79.894C226.776 79.6513 226.921 79.2873 226.921 78.802C226.921 78.3073 226.776 77.9433 226.487 77.71C226.197 77.4767 225.819 77.36 225.353 77.36H222.245V80.244ZM223.785 77.108V76.604H225.213C225.595 76.604 225.908 76.4873 226.151 76.254C226.403 76.0207 226.529 75.7173 226.529 75.344C226.529 74.9987 226.403 74.7047 226.151 74.462C225.908 74.2193 225.595 74.098 225.213 74.098H221.853V73.342H225.213C225.633 73.342 226.001 73.426 226.319 73.594C226.645 73.762 226.902 74 227.089 74.308C227.275 74.6067 227.369 74.952 227.369 75.344C227.369 75.9787 227.168 76.4313 226.767 76.702C226.365 76.9727 225.847 77.108 225.213 77.108H223.785Z" fill="#FEFEFE"/>
<circle cx="199" cy="60" r="59.5" transform="rotate(-90 199 60)" stroke="#FEFEFE"/>
<circle cx="228" cy="245" r="69.5" transform="rotate(-90 228 245)" stroke="#FEFEFE"/>
<path d="M171.486 242.14C170.739 242.14 170.035 241.995 169.372 241.706C168.719 241.407 168.14 241.001 167.636 240.488C167.132 239.965 166.735 239.368 166.446 238.696C166.157 238.015 166.012 237.291 166.012 236.526C166.012 235.77 166.152 235.056 166.432 234.384C166.712 233.703 167.099 233.105 167.594 232.592C168.098 232.069 168.681 231.663 169.344 231.374C170.007 231.075 170.721 230.926 171.486 230.926C172.13 230.926 172.741 231.029 173.32 231.234C173.899 231.439 174.44 231.752 174.944 232.172C175.028 232.237 175.07 232.331 175.07 232.452C175.07 232.564 175.033 232.667 174.958 232.76C174.883 232.844 174.781 232.886 174.65 232.886C174.613 232.886 174.575 232.881 174.538 232.872C174.501 232.853 174.463 232.835 174.426 232.816C174.389 232.788 174.347 232.755 174.3 232.718C173.927 232.382 173.502 232.139 173.026 231.99C172.55 231.841 172.037 231.766 171.486 231.766C170.861 231.766 170.268 231.897 169.708 232.158C169.148 232.41 168.653 232.76 168.224 233.208C167.795 233.647 167.459 234.151 167.216 234.72C166.973 235.289 166.852 235.891 166.852 236.526C166.852 237.179 166.973 237.795 167.216 238.374C167.459 238.953 167.79 239.461 168.21 239.9C168.639 240.339 169.134 240.684 169.694 240.936C170.254 241.179 170.851 241.3 171.486 241.3C172.037 241.3 172.55 241.216 173.026 241.048C173.511 240.88 173.964 240.623 174.384 240.278C174.459 240.213 174.547 240.189 174.65 240.208C174.753 240.227 174.841 240.273 174.916 240.348C174.991 240.423 175.028 240.521 175.028 240.642C175.028 240.698 175.023 240.749 175.014 240.796C175.005 240.843 174.977 240.889 174.93 240.936C174.473 241.393 173.941 241.711 173.334 241.888C172.737 242.056 172.121 242.14 171.486 242.14ZM180.104 242.084C179.357 242.084 178.685 241.916 178.088 241.58C177.5 241.235 177.033 240.768 176.688 240.18C176.352 239.583 176.184 238.915 176.184 238.178C176.184 237.431 176.352 236.764 176.688 236.176C177.033 235.579 177.5 235.112 178.088 234.776C178.685 234.431 179.357 234.258 180.104 234.258C180.85 234.258 181.518 234.431 182.106 234.776C182.694 235.112 183.156 235.579 183.492 236.176C183.837 236.764 184.01 237.431 184.01 238.178L183.66 238.738C183.66 239.373 183.501 239.942 183.184 240.446C182.876 240.95 182.456 241.351 181.924 241.65C181.392 241.939 180.785 242.084 180.104 242.084ZM180.104 241.3C180.692 241.3 181.214 241.165 181.672 240.894C182.138 240.614 182.502 240.241 182.764 239.774C183.034 239.298 183.17 238.766 183.17 238.178C183.17 237.581 183.034 237.049 182.764 236.582C182.502 236.106 182.138 235.733 181.672 235.462C181.214 235.182 180.692 235.042 180.104 235.042C179.525 235.042 179.002 235.182 178.536 235.462C178.069 235.733 177.7 236.106 177.43 236.582C177.159 237.049 177.024 237.581 177.024 238.178C177.024 238.766 177.159 239.298 177.43 239.774C177.7 240.241 178.069 240.614 178.536 240.894C179.002 241.165 179.525 241.3 180.104 241.3ZM183.604 242C183.473 242 183.366 241.963 183.282 241.888C183.207 241.804 183.17 241.701 183.17 241.58V239.018L183.436 238.178H184.01V241.58C184.01 241.701 183.972 241.804 183.898 241.888C183.823 241.963 183.725 242 183.604 242ZM186.526 242C186.395 242 186.292 241.963 186.218 241.888C186.143 241.813 186.106 241.711 186.106 241.58V234.762C186.106 234.622 186.143 234.519 186.218 234.454C186.292 234.379 186.395 234.342 186.526 234.342C186.731 234.342 186.894 234.435 187.016 234.622L190.236 239.298L193.456 234.622C193.577 234.435 193.74 234.342 193.946 234.342C194.076 234.342 194.179 234.379 194.254 234.454C194.328 234.519 194.366 234.622 194.366 234.762V241.58C194.366 241.711 194.328 241.813 194.254 241.888C194.179 241.963 194.076 242 193.946 242C193.806 242 193.698 241.963 193.624 241.888C193.558 241.813 193.526 241.711 193.526 241.58V235.182L193.876 235.294L190.586 240.096C190.492 240.217 190.376 240.278 190.236 240.278C190.096 240.278 189.979 240.217 189.886 240.096L186.582 235.35L186.946 235.238V241.58C186.946 241.72 186.908 241.827 186.834 241.902C186.768 241.967 186.666 242 186.526 242ZM199.889 242.14C199.301 242.14 198.778 242.028 198.321 241.804C197.873 241.571 197.518 241.253 197.257 240.852C197.005 240.441 196.879 239.975 196.879 239.452V234.748C196.888 234.627 196.93 234.529 197.005 234.454C197.08 234.379 197.178 234.342 197.299 234.342C197.43 234.342 197.532 234.379 197.607 234.454C197.682 234.529 197.719 234.631 197.719 234.762V237.044H199.889C200.43 237.044 200.911 237.151 201.331 237.366C201.751 237.581 202.078 237.879 202.311 238.262C202.554 238.645 202.675 239.088 202.675 239.592C202.675 240.087 202.554 240.53 202.311 240.922C202.078 241.305 201.751 241.603 201.331 241.818C200.911 242.033 200.43 242.14 199.889 242.14ZM199.889 241.384C200.458 241.384 200.925 241.235 201.289 240.936C201.653 240.637 201.835 240.189 201.835 239.592C201.835 238.995 201.653 238.547 201.289 238.248C200.925 237.949 200.458 237.8 199.889 237.8H197.719V239.466C197.719 240.026 197.924 240.488 198.335 240.852C198.746 241.207 199.264 241.384 199.889 241.384ZM204.299 242C204.178 242 204.075 241.963 203.991 241.888C203.916 241.804 203.879 241.701 203.879 241.58V234.762C203.879 234.631 203.916 234.529 203.991 234.454C204.075 234.379 204.178 234.342 204.299 234.342C204.43 234.342 204.532 234.379 204.607 234.454C204.682 234.529 204.719 234.631 204.719 234.762V241.58C204.719 241.701 204.682 241.804 204.607 241.888C204.532 241.963 204.43 242 204.299 242ZM210.63 242.07C209.893 242.07 209.235 241.907 208.656 241.58C208.087 241.244 207.639 240.782 207.312 240.194C206.986 239.606 206.822 238.934 206.822 238.178C206.822 237.413 206.976 236.741 207.284 236.162C207.592 235.574 208.017 235.112 208.558 234.776C209.1 234.44 209.72 234.272 210.42 234.272C211.111 234.272 211.722 234.435 212.254 234.762C212.786 235.079 213.202 235.523 213.5 236.092C213.799 236.652 213.948 237.301 213.948 238.038C213.948 238.159 213.911 238.257 213.836 238.332C213.762 238.397 213.664 238.43 213.542 238.43H207.382V237.702H213.766L213.15 238.164C213.169 237.557 213.066 237.021 212.842 236.554C212.618 236.087 212.296 235.723 211.876 235.462C211.466 235.191 210.98 235.056 210.42 235.056C209.888 235.056 209.412 235.191 208.992 235.462C208.582 235.723 208.255 236.087 208.012 236.554C207.779 237.021 207.662 237.562 207.662 238.178C207.662 238.785 207.788 239.321 208.04 239.788C208.292 240.255 208.642 240.623 209.09 240.894C209.538 241.155 210.052 241.286 210.63 241.286C210.994 241.286 211.358 241.225 211.722 241.104C212.096 240.973 212.39 240.805 212.604 240.6C212.679 240.525 212.768 240.488 212.87 240.488C212.982 240.479 213.076 240.507 213.15 240.572C213.253 240.656 213.304 240.749 213.304 240.852C213.314 240.955 213.272 241.048 213.178 241.132C212.88 241.403 212.488 241.627 212.002 241.804C211.526 241.981 211.069 242.07 210.63 242.07ZM220.295 242C220.174 242 220.071 241.963 219.987 241.888C219.913 241.804 219.875 241.701 219.875 241.58V234.748C219.885 234.627 219.927 234.529 220.001 234.454C220.076 234.379 220.174 234.342 220.295 234.342C220.426 234.342 220.529 234.379 220.603 234.454C220.678 234.529 220.715 234.631 220.715 234.762V237.604H223.823V237.744C224.299 237.744 224.715 237.833 225.069 238.01C225.433 238.187 225.718 238.43 225.923 238.738C226.129 239.046 226.231 239.401 226.231 239.802C226.231 240.231 226.129 240.614 225.923 240.95C225.718 241.277 225.433 241.533 225.069 241.72C224.715 241.907 224.299 242 223.823 242H220.295ZM220.715 241.244H223.823C224.29 241.244 224.668 241.127 224.957 240.894C225.247 240.651 225.391 240.287 225.391 239.802C225.391 239.307 225.247 238.943 224.957 238.71C224.668 238.477 224.29 238.36 223.823 238.36H220.715V241.244ZM222.255 238.108V237.604H223.683C224.066 237.604 224.379 237.487 224.621 237.254C224.873 237.021 224.999 236.717 224.999 236.344C224.999 235.999 224.873 235.705 224.621 235.462C224.379 235.219 224.066 235.098 223.683 235.098H220.323V234.342H223.683C224.103 234.342 224.472 234.426 224.789 234.594C225.116 234.762 225.373 235 225.559 235.308C225.746 235.607 225.839 235.952 225.839 236.344C225.839 236.979 225.639 237.431 225.237 237.702C224.836 237.973 224.318 238.108 223.683 238.108H222.255ZM231.129 242.14C230.541 242.14 230.019 242.028 229.561 241.804C229.113 241.571 228.759 241.253 228.497 240.852C228.245 240.441 228.119 239.975 228.119 239.452V234.748C228.129 234.627 228.171 234.529 228.245 234.454C228.32 234.379 228.418 234.342 228.539 234.342C228.67 234.342 228.773 234.379 228.847 234.454C228.922 234.529 228.959 234.631 228.959 234.762V237.044H231.129C231.671 237.044 232.151 237.151 232.571 237.366C232.991 237.581 233.318 237.879 233.551 238.262C233.794 238.645 233.915 239.088 233.915 239.592C233.915 240.087 233.794 240.53 233.551 240.922C233.318 241.305 232.991 241.603 232.571 241.818C232.151 242.033 231.671 242.14 231.129 242.14ZM231.129 241.384C231.699 241.384 232.165 241.235 232.529 240.936C232.893 240.637 233.075 240.189 233.075 239.592C233.075 238.995 232.893 238.547 232.529 238.248C232.165 237.949 231.699 237.8 231.129 237.8H228.959V239.466C228.959 240.026 229.165 240.488 229.575 240.852C229.986 241.207 230.504 241.384 231.129 241.384ZM235.539 242C235.418 242 235.315 241.963 235.231 241.888C235.157 241.804 235.119 241.701 235.119 241.58V234.762C235.119 234.631 235.157 234.529 235.231 234.454C235.315 234.379 235.418 234.342 235.539 234.342C235.67 234.342 235.773 234.379 235.847 234.454C235.922 234.529 235.959 234.631 235.959 234.762V241.58C235.959 241.701 235.922 241.804 235.847 241.888C235.773 241.963 235.67 242 235.539 242ZM240.793 242.084C240.289 242.084 239.822 242.005 239.393 241.846C238.973 241.687 238.632 241.463 238.371 241.174C238.119 240.875 237.993 240.516 237.993 240.096C237.993 239.779 238.072 239.485 238.231 239.214C238.399 238.934 238.683 238.677 239.085 238.444C239.486 238.211 240.051 238.01 240.779 237.842C241.395 237.693 241.824 237.497 242.067 237.254C242.319 237.002 242.445 236.694 242.445 236.33C242.445 235.975 242.314 235.672 242.053 235.42C241.791 235.168 241.376 235.042 240.807 235.042C240.377 235.042 239.995 235.121 239.659 235.28C239.323 235.429 239.038 235.653 238.805 235.952C238.739 236.045 238.651 236.101 238.539 236.12C238.436 236.139 238.338 236.125 238.245 236.078C238.123 236.013 238.053 235.929 238.035 235.826C238.016 235.714 238.039 235.611 238.105 235.518C238.375 235.135 238.73 234.832 239.169 234.608C239.607 234.375 240.144 234.258 240.779 234.258C241.292 234.258 241.735 234.342 242.109 234.51C242.482 234.669 242.771 234.907 242.977 235.224C243.182 235.532 243.285 235.915 243.285 236.372C243.285 236.82 243.121 237.24 242.795 237.632C242.468 238.015 241.88 238.304 241.031 238.5C240.191 238.687 239.612 238.906 239.295 239.158C238.987 239.401 238.833 239.704 238.833 240.068C238.833 240.479 238.987 240.787 239.295 240.992C239.603 241.197 240.088 241.3 240.751 241.3C241.217 241.3 241.642 241.235 242.025 241.104C242.417 240.973 242.743 240.749 243.005 240.432C243.079 240.348 243.168 240.297 243.271 240.278C243.373 240.259 243.471 240.283 243.565 240.348C243.667 240.423 243.723 240.516 243.733 240.628C243.751 240.731 243.723 240.829 243.649 240.922C243.331 241.295 242.902 241.585 242.361 241.79C241.829 241.986 241.306 242.084 240.793 242.084ZM249.133 242.084C248.386 242.084 247.714 241.916 247.117 241.58C246.529 241.235 246.062 240.768 245.717 240.18C245.381 239.583 245.213 238.915 245.213 238.178C245.213 237.431 245.381 236.764 245.717 236.176C246.062 235.579 246.529 235.112 247.117 234.776C247.714 234.431 248.386 234.258 249.133 234.258C249.88 234.258 250.547 234.431 251.135 234.776C251.723 235.112 252.185 235.579 252.521 236.176C252.866 236.764 253.039 237.431 253.039 238.178C253.039 238.915 252.866 239.583 252.521 240.18C252.185 240.768 251.723 241.235 251.135 241.58C250.547 241.916 249.88 242.084 249.133 242.084ZM249.133 241.3C249.721 241.3 250.244 241.165 250.701 240.894C251.168 240.614 251.532 240.241 251.793 239.774C252.064 239.298 252.199 238.761 252.199 238.164C252.199 237.576 252.064 237.049 251.793 236.582C251.532 236.106 251.168 235.733 250.701 235.462C250.244 235.182 249.721 235.042 249.133 235.042C248.554 235.042 248.032 235.182 247.565 235.462C247.098 235.733 246.73 236.106 246.459 236.582C246.188 237.049 246.053 237.581 246.053 238.178C246.053 238.766 246.188 239.298 246.459 239.774C246.73 240.241 247.098 240.614 247.565 240.894C248.032 241.165 248.554 241.3 249.133 241.3ZM258.635 242.084C257.87 242.084 257.193 241.916 256.605 241.58C256.017 241.244 255.555 240.782 255.219 240.194C254.883 239.606 254.715 238.934 254.715 238.178C254.715 237.413 254.888 236.736 255.233 236.148C255.578 235.56 256.045 235.098 256.633 234.762C257.23 234.426 257.898 234.258 258.635 234.258C259.4 234.258 260.072 234.426 260.651 234.762C261.239 235.098 261.701 235.56 262.037 236.148C262.373 236.736 262.541 237.413 262.541 238.178L262.051 238.738C262.051 239.391 261.906 239.97 261.617 240.474C261.328 240.978 260.926 241.375 260.413 241.664C259.9 241.944 259.307 242.084 258.635 242.084ZM258.691 244.926C257.916 244.926 257.254 244.781 256.703 244.492C256.162 244.203 255.714 243.834 255.359 243.386C255.284 243.293 255.247 243.195 255.247 243.092C255.247 242.989 255.294 242.901 255.387 242.826C255.48 242.761 255.588 242.737 255.709 242.756C255.84 242.775 255.938 242.835 256.003 242.938C256.292 243.283 256.661 243.568 257.109 243.792C257.557 244.025 258.084 244.142 258.691 244.142C259.27 244.142 259.783 244.002 260.231 243.722C260.688 243.442 261.048 243.055 261.309 242.56C261.57 242.075 261.701 241.529 261.701 240.922V238.696L262.079 238.178H262.541V240.922C262.541 241.678 262.373 242.359 262.037 242.966C261.701 243.573 261.244 244.049 260.665 244.394C260.086 244.749 259.428 244.926 258.691 244.926ZM258.635 241.3C259.232 241.3 259.76 241.169 260.217 240.908C260.684 240.637 261.048 240.269 261.309 239.802C261.57 239.326 261.701 238.785 261.701 238.178C261.701 237.562 261.57 237.021 261.309 236.554C261.048 236.078 260.684 235.709 260.217 235.448C259.76 235.177 259.232 235.042 258.635 235.042C258.038 235.042 257.506 235.177 257.039 235.448C256.572 235.709 256.208 236.078 255.947 236.554C255.686 237.021 255.555 237.562 255.555 238.178C255.555 238.785 255.686 239.326 255.947 239.802C256.208 240.269 256.572 240.637 257.039 240.908C257.506 241.169 258.038 241.3 258.635 241.3ZM271.259 242C271.138 242 271.035 241.963 270.951 241.888C270.876 241.804 270.839 241.701 270.839 241.58V234.762C270.839 234.631 270.876 234.529 270.951 234.454C271.035 234.379 271.138 234.342 271.259 234.342C271.39 234.342 271.492 234.379 271.567 234.454C271.642 234.529 271.679 234.631 271.679 234.762V241.58C271.679 241.701 271.642 241.804 271.567 241.888C271.492 241.963 271.39 242 271.259 242ZM265.057 242C264.936 242 264.833 241.963 264.749 241.888C264.674 241.804 264.637 241.701 264.637 241.58V234.762C264.637 234.631 264.674 234.529 264.749 234.454C264.833 234.379 264.936 234.342 265.057 234.342C265.188 234.342 265.29 234.379 265.365 234.454C265.44 234.529 265.477 234.631 265.477 234.762V241.58C265.477 241.701 265.44 241.804 265.365 241.888C265.29 241.963 265.188 242 265.057 242ZM265.295 238.598V237.842H271.189V238.598H265.295ZM277.204 242.14C276.616 242.14 276.093 242.028 275.636 241.804C275.188 241.571 274.833 241.253 274.572 240.852C274.32 240.441 274.194 239.975 274.194 239.452V234.748C274.203 234.627 274.245 234.529 274.32 234.454C274.394 234.379 274.492 234.342 274.614 234.342C274.744 234.342 274.847 234.379 274.922 234.454C274.996 234.529 275.034 234.631 275.034 234.762V237.044H277.204C277.745 237.044 278.226 237.151 278.646 237.366C279.066 237.581 279.392 237.879 279.626 238.262C279.868 238.645 279.99 239.088 279.99 239.592C279.99 240.087 279.868 240.53 279.626 240.922C279.392 241.305 279.066 241.603 278.646 241.818C278.226 242.033 277.745 242.14 277.204 242.14ZM277.204 241.384C277.773 241.384 278.24 241.235 278.604 240.936C278.968 240.637 279.15 240.189 279.15 239.592C279.15 238.995 278.968 238.547 278.604 238.248C278.24 237.949 277.773 237.8 277.204 237.8H275.034V239.466C275.034 240.026 275.239 240.488 275.65 240.852C276.06 241.207 276.578 241.384 277.204 241.384ZM281.614 242C281.492 242 281.39 241.963 281.306 241.888C281.231 241.804 281.194 241.701 281.194 241.58V234.762C281.194 234.631 281.231 234.529 281.306 234.454C281.39 234.379 281.492 234.342 281.614 234.342C281.744 234.342 281.847 234.379 281.922 234.454C281.996 234.529 282.034 234.631 282.034 234.762V241.58C282.034 241.701 281.996 241.804 281.922 241.888C281.847 241.963 281.744 242 281.614 242ZM287.945 242.07C287.208 242.07 286.55 241.907 285.971 241.58C285.402 241.244 284.954 240.782 284.627 240.194C284.3 239.606 284.137 238.934 284.137 238.178C284.137 237.413 284.291 236.741 284.599 236.162C284.907 235.574 285.332 235.112 285.873 234.776C286.414 234.44 287.035 234.272 287.735 234.272C288.426 234.272 289.037 234.435 289.569 234.762C290.101 235.079 290.516 235.523 290.815 236.092C291.114 236.652 291.263 237.301 291.263 238.038C291.263 238.159 291.226 238.257 291.151 238.332C291.076 238.397 290.978 238.43 290.857 238.43H284.697V237.702H291.081L290.465 238.164C290.484 237.557 290.381 237.021 290.157 236.554C289.933 236.087 289.611 235.723 289.191 235.462C288.78 235.191 288.295 235.056 287.735 235.056C287.203 235.056 286.727 235.191 286.307 235.462C285.896 235.723 285.57 236.087 285.327 236.554C285.094 237.021 284.977 237.562 284.977 238.178C284.977 238.785 285.103 239.321 285.355 239.788C285.607 240.255 285.957 240.623 286.405 240.894C286.853 241.155 287.366 241.286 287.945 241.286C288.309 241.286 288.673 241.225 289.037 241.104C289.41 240.973 289.704 240.805 289.919 240.6C289.994 240.525 290.082 240.488 290.185 240.488C290.297 240.479 290.39 240.507 290.465 240.572C290.568 240.656 290.619 240.749 290.619 240.852C290.628 240.955 290.586 241.048 290.493 241.132C290.194 241.403 289.802 241.627 289.317 241.804C288.841 241.981 288.384 242.07 287.945 242.07ZM186.288 258C186.167 258 186.064 257.963 185.98 257.888C185.906 257.804 185.868 257.701 185.868 257.58V253.814C185.868 253.198 185.747 252.689 185.504 252.288C185.271 251.887 184.949 251.588 184.538 251.392C184.137 251.187 183.68 251.084 183.166 251.084C182.662 251.084 182.21 251.182 181.808 251.378C181.407 251.565 181.09 251.826 180.856 252.162C180.623 252.498 180.506 252.876 180.506 253.296H179.806C179.844 252.717 180.016 252.199 180.324 251.742C180.632 251.275 181.034 250.911 181.528 250.65C182.023 250.379 182.569 250.244 183.166 250.244C183.838 250.244 184.44 250.384 184.972 250.664C185.514 250.935 185.938 251.336 186.246 251.868C186.554 252.391 186.708 253.039 186.708 253.814V257.58C186.708 257.701 186.666 257.804 186.582 257.888C186.508 257.963 186.41 258 186.288 258ZM180.086 258C179.965 258 179.862 257.963 179.778 257.888C179.704 257.804 179.666 257.701 179.666 257.58V250.762C179.666 250.631 179.704 250.529 179.778 250.454C179.862 250.379 179.965 250.342 180.086 250.342C180.217 250.342 180.32 250.379 180.394 250.454C180.469 250.529 180.506 250.631 180.506 250.762V257.58C180.506 257.701 180.469 257.804 180.394 257.888C180.32 257.963 180.217 258 180.086 258ZM189.506 261.276C189.385 261.276 189.282 261.234 189.198 261.15C189.124 261.075 189.086 260.977 189.086 260.856V254.094C189.105 253.357 189.282 252.703 189.618 252.134C189.964 251.555 190.43 251.098 191.018 250.762C191.606 250.426 192.264 250.258 192.992 250.258C193.739 250.258 194.406 250.431 194.994 250.776C195.592 251.112 196.058 251.579 196.394 252.176C196.74 252.764 196.912 253.431 196.912 254.178C196.912 254.915 196.74 255.583 196.394 256.18C196.058 256.768 195.592 257.235 194.994 257.58C194.406 257.916 193.739 258.084 192.992 258.084C192.32 258.084 191.714 257.939 191.172 257.65C190.64 257.361 190.225 256.973 189.926 256.488V260.856C189.926 260.977 189.889 261.075 189.814 261.15C189.74 261.234 189.637 261.276 189.506 261.276ZM192.992 257.3C193.58 257.3 194.103 257.165 194.56 256.894C195.027 256.614 195.396 256.241 195.666 255.774C195.937 255.298 196.072 254.766 196.072 254.178C196.072 253.581 195.937 253.049 195.666 252.582C195.396 252.106 195.027 251.733 194.56 251.462C194.103 251.182 193.58 251.042 192.992 251.042C192.414 251.042 191.891 251.182 191.424 251.462C190.958 251.733 190.589 252.106 190.318 252.582C190.057 253.049 189.926 253.581 189.926 254.178C189.926 254.766 190.057 255.298 190.318 255.774C190.589 256.241 190.958 256.614 191.424 256.894C191.891 257.165 192.414 257.3 192.992 257.3ZM202.4 258.07C201.663 258.07 201.005 257.907 200.426 257.58C199.857 257.244 199.409 256.782 199.082 256.194C198.755 255.606 198.592 254.934 198.592 254.178C198.592 253.413 198.746 252.741 199.054 252.162C199.362 251.574 199.787 251.112 200.328 250.776C200.869 250.44 201.49 250.272 202.19 250.272C202.881 250.272 203.492 250.435 204.024 250.762C204.556 251.079 204.971 251.523 205.27 252.092C205.569 252.652 205.718 253.301 205.718 254.038C205.718 254.159 205.681 254.257 205.606 254.332C205.531 254.397 205.433 254.43 205.312 254.43H199.152V253.702H205.536L204.92 254.164C204.939 253.557 204.836 253.021 204.612 252.554C204.388 252.087 204.066 251.723 203.646 251.462C203.235 251.191 202.75 251.056 202.19 251.056C201.658 251.056 201.182 251.191 200.762 251.462C200.351 251.723 200.025 252.087 199.782 252.554C199.549 253.021 199.432 253.562 199.432 254.178C199.432 254.785 199.558 255.321 199.81 255.788C200.062 256.255 200.412 256.623 200.86 256.894C201.308 257.155 201.821 257.286 202.4 257.286C202.764 257.286 203.128 257.225 203.492 257.104C203.865 256.973 204.159 256.805 204.374 256.6C204.449 256.525 204.537 256.488 204.64 256.488C204.752 256.479 204.845 256.507 204.92 256.572C205.023 256.656 205.074 256.749 205.074 256.852C205.083 256.955 205.041 257.048 204.948 257.132C204.649 257.403 204.257 257.627 203.772 257.804C203.296 257.981 202.839 258.07 202.4 258.07ZM210.77 258.084C210.004 258.084 209.328 257.916 208.74 257.58C208.152 257.244 207.69 256.782 207.354 256.194C207.018 255.606 206.85 254.934 206.85 254.178C206.85 253.413 207.022 252.736 207.368 252.148C207.713 251.56 208.18 251.098 208.768 250.762C209.365 250.426 210.032 250.258 210.77 250.258C211.535 250.258 212.207 250.426 212.786 250.762C213.374 251.098 213.836 251.56 214.172 252.148C214.508 252.736 214.676 253.413 214.676 254.178L214.186 254.738C214.186 255.391 214.041 255.97 213.752 256.474C213.462 256.978 213.061 257.375 212.548 257.664C212.034 257.944 211.442 258.084 210.77 258.084ZM210.826 260.926C210.051 260.926 209.388 260.781 208.838 260.492C208.296 260.203 207.848 259.834 207.494 259.386C207.419 259.293 207.382 259.195 207.382 259.092C207.382 258.989 207.428 258.901 207.522 258.826C207.615 258.761 207.722 258.737 207.844 258.756C207.974 258.775 208.072 258.835 208.138 258.938C208.427 259.283 208.796 259.568 209.244 259.792C209.692 260.025 210.219 260.142 210.826 260.142C211.404 260.142 211.918 260.002 212.366 259.722C212.823 259.442 213.182 259.055 213.444 258.56C213.705 258.075 213.836 257.529 213.836 256.922V254.696L214.214 254.178H214.676V256.922C214.676 257.678 214.508 258.359 214.172 258.966C213.836 259.573 213.378 260.049 212.8 260.394C212.221 260.749 211.563 260.926 210.826 260.926ZM210.77 257.3C211.367 257.3 211.894 257.169 212.352 256.908C212.818 256.637 213.182 256.269 213.444 255.802C213.705 255.326 213.836 254.785 213.836 254.178C213.836 253.562 213.705 253.021 213.444 252.554C213.182 252.078 212.818 251.709 212.352 251.448C211.894 251.177 211.367 251.042 210.77 251.042C210.172 251.042 209.64 251.177 209.174 251.448C208.707 251.709 208.343 252.078 208.082 252.554C207.82 253.021 207.69 253.562 207.69 254.178C207.69 254.785 207.82 255.326 208.082 255.802C208.343 256.269 208.707 256.637 209.174 256.908C209.64 257.169 210.172 257.3 210.77 257.3ZM219.614 250.328C219.707 250.328 219.796 250.351 219.88 250.398C219.964 250.445 220.024 250.519 220.062 250.622L223.212 257.468C223.258 257.561 223.258 257.659 223.212 257.762C223.174 257.865 223.104 257.939 223.002 257.986C222.899 258.033 222.792 258.037 222.68 258C222.577 257.963 222.502 257.893 222.456 257.79L219.376 251H219.95L216.814 257.776C216.767 257.879 216.683 257.949 216.562 257.986C216.45 258.023 216.342 258.019 216.24 257.972C216.137 257.925 216.067 257.851 216.03 257.748C215.992 257.645 215.992 257.547 216.03 257.454L219.222 250.622C219.324 250.426 219.455 250.328 219.614 250.328ZM228.502 258.084C227.756 258.084 227.084 257.916 226.486 257.58C225.898 257.235 225.432 256.768 225.086 256.18C224.75 255.583 224.582 254.915 224.582 254.178C224.582 253.431 224.75 252.764 225.086 252.176C225.432 251.579 225.898 251.112 226.486 250.776C227.084 250.431 227.756 250.258 228.502 250.258C229.249 250.258 229.916 250.431 230.504 250.776C231.092 251.112 231.554 251.579 231.89 252.176C232.236 252.764 232.408 253.431 232.408 254.178C232.408 254.915 232.236 255.583 231.89 256.18C231.554 256.768 231.092 257.235 230.504 257.58C229.916 257.916 229.249 258.084 228.502 258.084ZM228.502 257.3C229.09 257.3 229.613 257.165 230.07 256.894C230.537 256.614 230.901 256.241 231.162 255.774C231.433 255.298 231.568 254.761 231.568 254.164C231.568 253.576 231.433 253.049 231.162 252.582C230.901 252.106 230.537 251.733 230.07 251.462C229.613 251.182 229.09 251.042 228.502 251.042C227.924 251.042 227.401 251.182 226.934 251.462C226.468 251.733 226.099 252.106 225.828 252.582C225.558 253.049 225.422 253.581 225.422 254.178C225.422 254.766 225.558 255.298 225.828 255.774C226.099 256.241 226.468 256.614 226.934 256.894C227.401 257.165 227.924 257.3 228.502 257.3ZM238.091 258C237.97 258 237.867 257.963 237.783 257.888C237.708 257.804 237.671 257.701 237.671 257.58V254.598H236.201L233.723 257.874C233.658 257.967 233.564 258.009 233.443 258C233.331 258 233.238 257.963 233.163 257.888C233.079 257.804 233.037 257.715 233.037 257.622C233.046 257.519 233.084 257.421 233.149 257.328L235.557 254.15L233.471 251C233.406 250.897 233.368 250.799 233.359 250.706C233.359 250.603 233.406 250.515 233.499 250.44C233.583 250.365 233.667 250.333 233.751 250.342C233.844 250.351 233.928 250.393 234.003 250.468L236.243 253.842H237.671V250.762C237.671 250.631 237.708 250.529 237.783 250.454C237.867 250.379 237.97 250.342 238.091 250.342C238.222 250.342 238.324 250.379 238.399 250.454C238.474 250.529 238.511 250.631 238.511 250.762V253.842H239.897L242.179 250.468C242.254 250.393 242.333 250.351 242.417 250.342C242.51 250.333 242.599 250.365 242.683 250.44C242.776 250.515 242.818 250.603 242.809 250.706C242.809 250.799 242.776 250.897 242.711 251L240.625 254.15L243.033 257.328C243.108 257.421 243.145 257.519 243.145 257.622C243.145 257.715 243.103 257.804 243.019 257.888C242.944 257.963 242.851 258 242.739 258C242.627 258.009 242.534 257.967 242.459 257.874L239.981 254.598H238.511V257.58C238.511 257.701 238.474 257.804 238.399 257.888C238.324 257.963 238.222 258 238.091 258ZM247.586 258.07C246.848 258.07 246.19 257.907 245.612 257.58C245.042 257.244 244.594 256.782 244.268 256.194C243.941 255.606 243.778 254.934 243.778 254.178C243.778 253.413 243.932 252.741 244.24 252.162C244.548 251.574 244.972 251.112 245.514 250.776C246.055 250.44 246.676 250.272 247.376 250.272C248.066 250.272 248.678 250.435 249.21 250.762C249.742 251.079 250.157 251.523 250.456 252.092C250.754 252.652 250.904 253.301 250.904 254.038C250.904 254.159 250.866 254.257 250.792 254.332C250.717 254.397 250.619 254.43 250.498 254.43H244.338V253.702H250.722L250.106 254.164C250.124 253.557 250.022 253.021 249.798 252.554C249.574 252.087 249.252 251.723 248.832 251.462C248.421 251.191 247.936 251.056 247.376 251.056C246.844 251.056 246.368 251.191 245.948 251.462C245.537 251.723 245.21 252.087 244.968 252.554C244.734 253.021 244.618 253.562 244.618 254.178C244.618 254.785 244.744 255.321 244.995 255.788C245.248 256.255 245.598 256.623 246.046 256.894C246.494 257.155 247.007 257.286 247.586 257.286C247.95 257.286 248.314 257.225 248.678 257.104C249.051 256.973 249.345 256.805 249.56 256.6C249.634 256.525 249.723 256.488 249.826 256.488C249.938 256.479 250.031 256.507 250.106 256.572C250.208 256.656 250.26 256.749 250.26 256.852C250.269 256.955 250.227 257.048 250.133 257.132C249.835 257.403 249.443 257.627 248.958 257.804C248.482 257.981 248.024 258.07 247.586 258.07ZM259.351 258C259.229 258 259.127 257.963 259.043 257.888C258.968 257.804 258.931 257.701 258.931 257.58V250.762C258.931 250.631 258.968 250.529 259.043 250.454C259.127 250.379 259.229 250.342 259.351 250.342C259.481 250.342 259.584 250.379 259.659 250.454C259.733 250.529 259.771 250.631 259.771 250.762V257.58C259.771 257.701 259.733 257.804 259.659 257.888C259.584 257.963 259.481 258 259.351 258ZM253.149 258C253.027 258 252.925 257.963 252.841 257.888C252.766 257.804 252.729 257.701 252.729 257.58V250.762C252.729 250.631 252.766 250.529 252.841 250.454C252.925 250.379 253.027 250.342 253.149 250.342C253.279 250.342 253.382 250.379 253.457 250.454C253.531 250.529 253.569 250.631 253.569 250.762V257.58C253.569 257.701 253.531 257.804 253.457 257.888C253.382 257.963 253.279 258 253.149 258ZM253.387 254.598V253.842H259.281V254.598H253.387ZM265.687 258.098C265.015 258.098 264.413 257.963 263.881 257.692C263.349 257.412 262.925 257.006 262.607 256.474C262.299 255.942 262.145 255.293 262.145 254.528V250.762C262.145 250.641 262.183 250.543 262.257 250.468C262.341 250.384 262.444 250.342 262.565 250.342C262.687 250.342 262.785 250.384 262.859 250.468C262.943 250.543 262.985 250.641 262.985 250.762V254.528C262.985 255.135 263.102 255.643 263.335 256.054C263.578 256.455 263.9 256.759 264.301 256.964C264.712 257.16 265.174 257.258 265.687 257.258C266.191 257.258 266.644 257.16 267.045 256.964C267.447 256.768 267.764 256.507 267.997 256.18C268.231 255.844 268.347 255.466 268.347 255.046H269.047C269.01 255.625 268.837 256.147 268.529 256.614C268.221 257.071 267.82 257.435 267.325 257.706C266.84 257.967 266.294 258.098 265.687 258.098ZM268.767 258C268.646 258 268.543 257.963 268.459 257.888C268.385 257.804 268.347 257.701 268.347 257.58V250.762C268.347 250.631 268.385 250.529 268.459 250.454C268.543 250.379 268.646 250.342 268.767 250.342C268.898 250.342 269.001 250.379 269.075 250.454C269.15 250.529 269.187 250.631 269.187 250.762V257.58C269.187 257.701 269.15 257.804 269.075 257.888C269.001 257.963 268.898 258 268.767 258ZM276.913 258C276.792 258 276.689 257.963 276.605 257.888C276.531 257.804 276.493 257.701 276.493 257.58V255.298H274.085V255.186C273.619 255.186 273.203 255.088 272.839 254.892C272.475 254.687 272.191 254.402 271.985 254.038C271.78 253.674 271.677 253.259 271.677 252.792C271.677 252.307 271.789 251.882 272.013 251.518C272.247 251.154 272.564 250.869 272.965 250.664C273.376 250.449 273.843 250.342 274.365 250.342H276.913C277.044 250.342 277.147 250.379 277.221 250.454C277.296 250.529 277.333 250.631 277.333 250.762V257.594C277.324 257.715 277.282 257.813 277.207 257.888C277.133 257.963 277.035 258 276.913 258ZM271.481 257.888C271.397 257.804 271.355 257.711 271.355 257.608C271.365 257.505 271.402 257.412 271.467 257.328L273.609 254.654L274.645 254.696L272.041 257.874C271.967 257.967 271.873 258.009 271.761 258C271.649 258 271.556 257.963 271.481 257.888ZM274.365 254.542H276.493V251.098H274.365C273.824 251.098 273.381 251.247 273.035 251.546C272.69 251.845 272.517 252.26 272.517 252.792C272.517 253.343 272.69 253.772 273.035 254.08C273.381 254.388 273.824 254.542 274.365 254.542Z" fill="#FEFEFE"/>
</svg>
