<svg width="24" height="24" viewBox="0 0 24 24" fill="none" xmlns="http://www.w3.org/2000/svg">
<path d="M3.91816 23.0368L4.36538 22.8132H4.36538L3.91816 23.0368ZM20.0814 23.0368L20.5287 23.2604L20.5287 23.2604L20.0814 23.0368ZM1.12492 9.30005H22.8747V8.30005H1.12492V9.30005ZM22.6998 9.12516V9.82718H23.6998V9.12516H22.6998ZM19.8173 22.7H4.18236V23.7H19.8173V22.7ZM1.2998 9.82718V9.12516H0.299805V9.82718H1.2998ZM4.36538 22.8132C2.34937 18.7811 1.2998 14.3351 1.2998 9.82718H0.299805C0.299805 14.4904 1.38551 19.0895 3.47095 23.2604L4.36538 22.8132ZM4.18236 22.7C4.25986 22.7 4.33072 22.7438 4.36538 22.8132L3.47095 23.2604C3.60568 23.5298 3.88109 23.7 4.18236 23.7V22.7ZM19.6342 22.8132C19.6689 22.7438 19.7397 22.7 19.8173 22.7V23.7C20.1185 23.7 20.3939 23.5298 20.5287 23.2604L19.6342 22.8132ZM22.6998 9.82718C22.6998 14.3351 21.6502 18.7811 19.6342 22.8132L20.5287 23.2604C22.6141 19.0895 23.6998 14.4904 23.6998 9.82718H22.6998ZM22.8747 9.30005C22.7781 9.30005 22.6998 9.22175 22.6998 9.12516H23.6998C23.6998 8.66947 23.3304 8.30005 22.8747 8.30005V9.30005ZM1.12492 8.30005C0.66922 8.30005 0.299805 8.66946 0.299805 9.12516H1.2998C1.2998 9.22175 1.22151 9.30005 1.12492 9.30005V8.30005ZM6.02855 9.0573L10.8286 1.0573L9.97106 0.542801L5.17106 8.5428L6.02855 9.0573ZM13.1711 1.0573L17.9711 9.0573L18.8285 8.5428L14.0285 0.542801L13.1711 1.0573Z" fill="#010409"/>
</svg>
