<svg width="20" height="20" viewBox="0 0 20 20" fill="none" xmlns="http://www.w3.org/2000/svg">
<path d="M9.99935 18L9.64579 18.3536C9.73956 18.4473 9.86674 18.5 9.99935 18.5C10.132 18.5 10.2591 18.4473 10.3529 18.3536L9.99935 18ZM2.04673 10.0474L1.69317 10.4009H1.69317L2.04673 10.0474ZM8.71339 3.38071L8.35984 3.73427V3.73427L8.71339 3.38071ZM9.99935 4.66667L9.64579 5.02022C9.84106 5.21548 10.1576 5.21548 10.3529 5.02022L9.99935 4.66667ZM11.2853 3.38071L10.9317 3.02716V3.02716L11.2853 3.38071ZM10.3529 17.6464L2.40028 9.69382L1.69317 10.4009L9.64579 18.3536L10.3529 17.6464ZM17.5984 9.69382L9.64579 17.6464L10.3529 18.3536L18.3055 10.4009L17.5984 9.69382ZM8.35984 3.73427L9.64579 5.02022L10.3529 4.31311L9.06695 3.02716L8.35984 3.73427ZM10.3529 5.02022L11.6389 3.73426L10.9317 3.02716L9.64579 4.31311L10.3529 5.02022ZM14.6186 1.5C13.2358 1.5 11.9096 2.04933 10.9317 3.02716L11.6389 3.73426C12.4291 2.94398 13.501 2.5 14.6186 2.5V1.5ZM18.8327 6.71405C18.8327 7.83168 18.3887 8.90354 17.5984 9.69382L18.3055 10.4009C19.2833 9.42311 19.8327 8.0969 19.8327 6.71405H18.8327ZM19.8327 6.71405C19.8327 3.83441 17.4983 1.5 14.6186 1.5V2.5C16.946 2.5 18.8327 4.38669 18.8327 6.71405H19.8327ZM5.38006 2.5C6.49769 2.5 7.56955 2.94398 8.35984 3.73427L9.06695 3.02716C8.08912 2.04934 6.76291 1.5 5.38006 1.5V2.5ZM1.16602 6.71405C1.16602 4.38669 3.05271 2.5 5.38006 2.5V1.5C2.50042 1.5 0.166016 3.83441 0.166016 6.71405H1.16602ZM2.40028 9.69382C1.60999 8.90354 1.16602 7.83168 1.16602 6.71405H0.166016C0.166016 8.0969 0.715349 9.42311 1.69317 10.4009L2.40028 9.69382Z" fill="#FEFEFE"/>
</svg>
