<svg width="25" height="24" viewBox="0 0 25 24" fill="none" xmlns="http://www.w3.org/2000/svg">
<path d="M12.5086 21.5999L12.155 21.9535C12.2488 22.0472 12.376 22.0999 12.5086 22.0999C12.6412 22.0999 12.7684 22.0472 12.8621 21.9535L12.5086 21.5999ZM2.96545 12.0568L2.61189 12.4103H2.61189L2.96545 12.0568ZM10.9654 4.05676L10.6119 4.41031L10.9654 4.05676ZM12.5086 5.5999L12.155 5.95346C12.3503 6.14872 12.6669 6.14872 12.8621 5.95346L12.5086 5.5999ZM14.0517 4.05676L13.6982 3.7032V3.7032L14.0517 4.05676ZM12.8621 21.2463L3.319 11.7032L2.61189 12.4103L12.155 21.9535L12.8621 21.2463ZM21.6982 11.7032L12.155 21.2463L12.8621 21.9535L22.4053 12.4103L21.6982 11.7032ZM10.6119 4.41031L12.155 5.95346L12.8621 5.24635L11.319 3.7032L10.6119 4.41031ZM12.8621 5.95346L14.4053 4.41031L13.6982 3.7032L12.155 5.24635L12.8621 5.95346ZM18.0517 1.8999C16.4188 1.8999 14.8528 2.54857 13.6982 3.7032L14.4053 4.41031C15.3724 3.44321 16.6841 2.8999 18.0517 2.8999V1.8999ZM23.2086 8.05676C23.2086 9.42444 22.6653 10.7361 21.6982 11.7032L22.4053 12.4103C23.5599 11.2557 24.2086 9.68966 24.2086 8.05676H23.2086ZM24.2086 8.05676C24.2086 4.65642 21.4521 1.8999 18.0517 1.8999V2.8999C20.8998 2.8999 23.2086 5.2087 23.2086 8.05676H24.2086ZM6.96545 2.8999C8.33313 2.8999 9.6448 3.44321 10.6119 4.41031L11.319 3.7032C10.1644 2.54857 8.59835 1.8999 6.96545 1.8999V2.8999ZM1.80859 8.05676C1.80859 5.2087 4.1174 2.8999 6.96545 2.8999V1.8999C3.56511 1.8999 0.808594 4.65642 0.808594 8.05676H1.80859ZM3.319 11.7032C2.3519 10.7361 1.80859 9.42444 1.80859 8.05676H0.808594C0.808594 9.68966 1.45726 11.2557 2.61189 12.4103L3.319 11.7032Z" fill="#FEFEFE"/>
</svg>
