<svg width="334" height="500" viewBox="0 0 334 500" fill="none" xmlns="http://www.w3.org/2000/svg">
<g opacity="0.4">
<path d="M15.1047 206.966C15.1047 206.966 17.0549 215.637 20.1926 220.197C22.6351 223.747 27.9941 228 27.9941 228C27.9941 228 25.2175 214.421 30.3684 209.002C34.4958 204.66 38.9635 204.252 44.9537 204.252C50.9439 204.252 59.539 209.002 59.539 209.002C59.539 209.002 41.5807 195.78 33.0819 184.576C27.5896 177.335 24.7756 172.92 21.2102 164.56C17.3902 155.603 15.8137 150.154 14.7655 140.473C13.5504 129.249 13.4826 122.427 16.8007 111.637C20.4002 99.9307 24.3216 93.2611 32.5118 84.1571C41.7098 73.933 48.4549 68.7166 61.1242 63.3691C71.9667 58.7928 79.3181 57.7871 91.0839 58.0347C99.7073 58.2163 112.792 62.1058 112.792 62.1058C112.792 62.1058 115.719 69.8183 116.523 74.9973C117.337 80.2356 116.862 88.5674 116.862 88.5674M15.1047 189.665C15.1047 189.665 17.4666 178.472 21.2102 172.363C25.1751 165.892 28.7666 163.624 35.1171 159.471C43.9361 153.704 49.8772 151.233 59.539 146.58C67.4922 142.749 72.3102 141.266 79.8905 136.741C88.9904 131.31 94.4612 128.291 101.599 120.457C106.796 114.753 112.792 104.173 112.792 104.173M116.121 93.3726L115.121 99.3733M14.7655 195.384V201.885" stroke="#266EDB" stroke-linecap="round" stroke-linejoin="round"/>
<path d="M249.14 410.476C249.14 410.476 241.022 423.46 233.085 429.061C226.907 433.42 215.281 437.226 215.281 437.226C215.281 437.226 227.514 416.729 221.528 404.906C216.732 395.432 209.197 392.168 198.797 388.681C188.396 385.194 170.881 387.925 170.881 387.925C170.881 387.925 209.277 376.847 230.148 363.548C243.636 354.954 250.932 349.401 261.685 337.863C273.206 325.5 280.431 317.837 287.535 302.681C295.77 285.111 299.382 273.262 299.511 253.758C299.65 232.6 295.269 217.934 286.017 198.341C275.628 176.336 266.633 162.995 247.554 146.912C231.227 133.148 219.672 129.385 199.108 122.94C184.037 118.216 158.596 117.705 158.596 117.705C158.596 117.705 149.305 128.562 145.082 136.528C140.81 144.584 137.086 158.429 137.086 158.429M258.584 382.3C258.584 382.3 260.592 362.697 257.426 350.569C254.074 337.725 249.076 331.94 240.317 321.48C228.153 306.955 219.186 299.473 204.951 286.27C193.233 275.402 185.677 270.182 174.985 258.402C162.15 244.26 154.299 236.159 146.182 219.247C140.272 206.932 135.636 186.212 135.636 186.212M135.632 166.861L135.196 178.843M255.654 392.994L253.062 400.729" stroke="#266EDB" stroke-linecap="round" stroke-linejoin="round"/>
<path d="M65.6698 469.836C65.6698 469.836 71.4487 478.592 76.7452 482.325C80.8682 485.232 88.4072 487.709 88.4072 487.709C88.4072 487.709 79.6531 473.88 82.8482 465.777C85.4084 459.285 90.009 456.99 96.4102 454.517C102.811 452.043 114.02 453.731 114.02 453.731C114.02 453.731 89.195 446.566 75.3385 437.72C66.3836 432.003 61.4949 428.296 54.1222 420.549C46.2231 412.25 42.2161 406.891 36.9705 396.648C30.8888 384.773 27.9091 377.277 26.8563 364.008C25.7142 349.612 26.0574 340.111 30.9299 326.689C36.4018 311.615 41.5621 303.381 52.822 292.252C62.4581 282.728 70.7148 278.806 83.3934 274.221C92.6859 270.86 108.326 269.746 108.326 269.746C108.326 269.746 114.74 277.042 117.807 282.421C120.909 287.862 123.953 297.246 123.953 297.246M58.2964 450.756C58.2964 450.756 56.0504 437.437 57.4474 429.154C58.927 420.382 61.7982 416.397 66.8146 409.195C73.7809 399.193 79.0769 394.015 87.4183 384.893C94.2848 377.384 98.8013 373.759 104.974 365.639C112.383 355.892 116.943 350.303 121.232 338.717C124.355 330.28 126.254 316.137 126.254 316.137M125.586 302.811L126.248 310.302M60.6809 458.004L62.7049 463.242" stroke="#266EDB" stroke-linecap="round" stroke-linejoin="round"/>
<circle cx="143.5" cy="21.5" r="20.5" stroke="#266EDB" stroke-width="2"/>
<circle cx="171.5" cy="65.5" r="15.5" stroke="#DB2626" stroke-width="2"/>
<circle cx="98" cy="79" r="7" fill="#266EDB"/>
<circle cx="176" cy="149" r="7" fill="#266EDB"/>
<circle cx="101" cy="294" r="7" fill="#266EDB"/>
<circle cx="172.5" cy="456.5" r="12.5" stroke="#266EDB" stroke-width="2"/>
<circle cx="137" cy="489" r="10" stroke="#DB2626" stroke-width="2"/>
</g>
</svg>
