<svg width="24" height="24" viewBox="0 0 24 24" fill="none" xmlns="http://www.w3.org/2000/svg">
<path d="M17.5998 5.60005H19.1998M7.1998 0.800049H16.7998C20.3344 0.800049 23.1998 3.66543 23.1998 7.20005V16.8C23.1998 20.3347 20.3344 23.2 16.7998 23.2H7.1998C3.66518 23.2 0.799805 20.3347 0.799805 16.8V7.20005C0.799805 3.66543 3.66518 0.800049 7.1998 0.800049ZM11.9998 16.8C9.34884 16.8 7.1998 14.651 7.1998 12C7.1998 9.34908 9.34884 7.20005 11.9998 7.20005C14.6508 7.20005 16.7998 9.34908 16.7998 12C16.7998 14.651 14.6508 16.8 11.9998 16.8Z" stroke="#010409"/>
</svg>
