<svg width="24" height="24" viewBox="0 0 24 24" fill="none" xmlns="http://www.w3.org/2000/svg">
<path d="M2.57719 20.3808L2.47243 20.8697H2.47243L2.57719 20.3808ZM21.4224 20.3808L21.5272 20.8697L21.4224 20.3808ZM21.4224 3.61908L21.5272 3.13018L21.4224 3.61908ZM2.57719 3.61908L2.68196 4.10799L2.57719 3.61908ZM10.3998 8.79995L10.6772 8.38393C10.5237 8.28164 10.3265 8.27211 10.1639 8.35912C10.0013 8.44613 9.8998 8.61556 9.8998 8.79995H10.3998ZM10.3998 15.2H9.8998C9.8998 15.3844 10.0013 15.5538 10.1639 15.6408C10.3265 15.7278 10.5237 15.7183 10.6772 15.616L10.3998 15.2ZM15.1998 12L15.4772 12.416C15.6163 12.3232 15.6998 12.1671 15.6998 12C15.6998 11.8328 15.6163 11.6767 15.4772 11.5839L15.1998 12ZM0.299805 5.81769V18.1822H1.2998V5.81769H0.299805ZM23.6998 18.1822V5.81769H22.6998V18.1822H23.6998ZM2.47243 20.8697C8.75273 22.2155 15.2469 22.2155 21.5272 20.8697L21.3176 19.8919C15.1755 21.2081 8.82414 21.2081 2.68196 19.8919L2.47243 20.8697ZM21.5272 3.13018C15.2469 1.78441 8.75273 1.78441 2.47243 3.13018L2.68196 4.10799C8.82414 2.7918 15.1755 2.7918 21.3176 4.10799L21.5272 3.13018ZM23.6998 5.81769C23.6998 4.52166 22.7944 3.40174 21.5272 3.13018L21.3176 4.10799C22.1238 4.28074 22.6998 4.9932 22.6998 5.81769H23.6998ZM22.6998 18.1822C22.6998 19.0067 22.1238 19.7192 21.3176 19.8919L21.5272 20.8697C22.7944 20.5982 23.6998 19.4782 23.6998 18.1822H22.6998ZM0.299805 18.1822C0.299805 19.4782 1.20517 20.5982 2.47243 20.8697L2.68196 19.8919C1.87577 19.7192 1.2998 19.0067 1.2998 18.1822H0.299805ZM1.2998 5.81769C1.2998 4.9932 1.87577 4.28074 2.68196 4.10799L2.47243 3.13018C1.20517 3.40174 0.299805 4.52166 0.299805 5.81769H1.2998ZM9.8998 8.79995V15.2H10.8998V8.79995H9.8998ZM10.6772 15.616L15.4772 12.416L14.9225 11.5839L10.1225 14.7839L10.6772 15.616ZM15.4772 11.5839L10.6772 8.38393L10.1225 9.21598L14.9225 12.416L15.4772 11.5839Z" fill="#010409"/>
</svg>
